<svg id="svg" version="1.1" xmlns="http://www.w3.org/2000/svg" xmlns:xlink="http://www.w3.org/1999/xlink" width="400" height="400" viewBox="0, 0, 400,400"><g id="svgg"><path id="path0" d="M195.703 9.638 C 169.945 10.775,149.838 14.975,129.297 23.506 C 64.106 50.583,20.197 109.903,12.823 180.859 C 12.133 187.496,12.131 213.063,12.819 219.336 C 15.536 244.095,20.963 263.200,31.198 284.040 C 36.762 295.369,44.732 308.437,48.435 312.305 C 50.813 314.788,58.109 323.870,59.575 326.172 C 62.847 331.309,86.237 352.742,90.425 354.441 C 92.850 355.424,92.763 355.716,92.853 346.265 C 92.907 340.679,93.088 337.617,93.399 337.035 C 93.656 336.555,93.894 334.655,93.929 332.812 C 94.011 328.493,94.023 328.478,96.991 328.771 C 100.442 329.111,101.953 329.796,101.953 331.020 C 101.953 331.924,100.647 333.594,99.940 333.594 C 99.773 333.594,99.433 333.975,99.183 334.442 C 98.626 335.483,99.541 336.328,101.224 336.328 C 103.449 336.328,104.129 338.952,102.677 341.939 L 101.839 343.664 102.677 344.842 C 103.473 345.959,103.516 346.453,103.516 354.493 L 103.516 362.968 104.664 364.040 C 105.295 364.630,107.097 365.783,108.667 366.603 C 110.238 367.422,112.490 368.707,113.672 369.458 C 116.344 371.155,121.822 373.827,122.636 373.830 C 123.956 373.835,126.076 374.656,128.050 375.928 C 129.290 376.727,132.434 377.999,135.863 379.089 C 139.019 380.093,143.359 381.504,145.508 382.225 C 147.656 382.945,150.469 383.736,151.758 383.981 C 153.047 384.226,156.738 384.948,159.961 385.584 C 174.858 388.527,177.175 388.857,188.283 389.629 C 198.621 390.346,197.593 392.081,197.187 374.606 C 197.035 368.055,196.908 345.996,196.905 325.586 C 196.899 283.716,196.353 262.315,195.260 261.075 C 193.854 259.480,192.913 256.981,193.026 255.141 C 193.110 253.782,192.994 253.306,192.565 253.248 C 192.250 253.205,190.273 253.055,188.171 252.915 L 184.350 252.660 183.426 250.835 C 182.917 249.831,182.306 248.287,182.068 247.402 L 181.635 245.794 179.196 245.626 C 176.018 245.408,173.382 243.796,170.708 240.436 C 166.359 234.970,162.636 232.577,160.027 233.569 C 156.931 234.746,155.246 234.031,155.003 231.437 C 154.571 226.826,151.570 224.421,145.770 224.036 C 140.370 223.678,140.463 223.745,139.720 219.695 C 139.012 215.838,139.050 215.882,135.788 215.238 C 130.169 214.129,128.861 213.391,128.242 210.980 C 127.959 209.877,127.447 209.398,125.182 208.117 C 121.701 206.149,120.916 205.397,119.656 202.821 C 118.770 201.009,118.324 200.570,116.456 199.674 C 114.704 198.833,114.226 198.395,113.977 197.400 C 113.808 196.723,113.232 195.404,112.698 194.471 C 112.165 193.537,111.726 192.369,111.723 191.875 C 111.720 191.203,111.348 190.827,110.254 190.387 C 104.353 188.015,103.908 187.433,103.900 182.076 C 103.893 177.334,103.930 177.428,101.350 175.593 C 99.555 174.317,99.209 174.219,96.505 174.219 C 93.035 174.219,93.173 173.612,96.755 173.123 C 98.866 172.834,99.334 172.600,100.745 171.131 L 102.344 169.468 102.344 165.773 L 102.344 162.078 100.684 160.536 C 99.530 159.464,98.666 158.991,97.852 158.983 C 94.608 158.953,95.256 157.457,98.716 156.989 C 102.397 156.492,103.973 154.218,102.344 151.758 C 100.322 148.705,101.622 143.750,104.445 143.750 C 105.654 143.750,106.298 142.576,106.038 140.845 C 105.521 137.398,107.198 134.548,110.349 133.517 C 111.866 133.020,111.920 132.941,112.343 130.576 C 112.868 127.641,113.156 127.263,115.885 125.928 C 118.359 124.718,119.739 123.095,120.142 120.921 C 120.556 118.687,121.675 117.778,124.715 117.204 C 127.595 116.661,127.888 116.426,129.297 113.535 C 130.456 111.155,132.167 109.897,134.697 109.565 C 138.769 109.030,138.652 109.102,139.877 106.370 C 140.624 104.706,141.016 103.189,141.016 101.959 C 141.016 99.637,141.078 99.609,146.362 99.609 C 150.177 99.609,150.557 99.539,151.634 98.633 C 152.357 98.024,153.279 97.656,154.079 97.656 C 154.785 97.656,155.810 97.305,156.357 96.875 C 156.995 96.373,157.956 96.089,159.046 96.082 C 162.516 96.057,166.448 95.336,167.462 94.539 C 168.235 93.931,169.057 93.748,171.049 93.741 C 172.720 93.736,174.199 93.476,175.236 93.005 C 177.633 91.916,185.970 91.155,193.098 91.375 C 195.879 91.461,196.304 91.370,197.785 90.378 C 198.681 89.778,199.482 89.242,199.565 89.187 C 199.647 89.132,199.428 88.648,199.076 88.112 C 197.739 86.071,198.462 82.603,199.920 84.061 C 200.283 84.424,200.499 84.377,200.883 83.852 C 201.242 83.360,202.018 83.152,203.716 83.091 L 206.055 83.008 206.116 86.264 C 206.168 89.089,206.297 89.650,207.092 90.509 L 208.008 91.498 215.060 91.312 C 222.863 91.105,228.162 91.610,229.857 92.720 C 230.609 93.214,232.155 93.511,235.095 93.729 C 238.660 93.993,239.486 94.187,240.781 95.066 C 242.150 95.994,242.649 96.094,245.943 96.094 C 249.571 96.094,249.592 96.099,250.175 97.227 C 250.791 98.418,253.263 100.000,255.750 100.793 C 256.562 101.052,257.754 101.750,258.398 102.344 C 259.043 102.937,260.245 103.638,261.069 103.901 C 263.251 104.598,265.234 106.469,265.234 107.831 C 265.234 109.580,266.447 110.156,270.129 110.156 C 273.893 110.156,274.202 110.358,275.198 113.477 C 276.134 116.407,276.110 116.392,279.883 116.406 C 283.773 116.421,284.034 116.591,284.410 119.358 C 284.712 121.586,287.894 125.781,289.282 125.781 C 290.129 125.781,290.905 127.166,291.353 129.476 C 291.885 132.226,292.053 132.429,294.450 133.235 C 296.604 133.959,297.252 134.953,297.260 137.550 C 297.264 138.742,297.483 139.538,297.905 139.888 C 298.257 140.180,298.860 141.156,299.246 142.057 C 299.633 142.958,300.304 143.885,300.738 144.118 C 302.239 144.921,302.733 148.655,301.883 152.770 C 301.478 154.732,301.505 155.127,302.106 156.045 L 302.791 157.090 306.584 156.821 C 311.230 156.492,311.524 156.693,311.119 159.934 C 310.802 162.473,310.013 162.885,305.449 162.888 C 302.280 162.891,301.953 163.202,301.953 166.214 C 301.953 169.694,302.196 169.883,306.836 170.010 L 310.742 170.117 310.858 172.110 L 310.974 174.104 308.555 174.356 C 307.224 174.496,305.477 174.609,304.672 174.609 C 301.815 174.609,300.914 176.041,300.602 181.074 C 300.274 186.383,300.368 186.124,298.400 187.128 C 297.500 187.588,296.071 188.724,295.225 189.654 C 294.379 190.583,292.998 191.821,292.156 192.405 C 290.650 193.448,290.625 193.505,290.625 195.924 C 290.625 198.487,290.205 199.318,288.663 199.808 C 287.517 200.171,286.670 202.495,286.384 206.055 L 286.133 209.180 282.352 209.375 C 278.024 209.599,276.464 210.356,276.238 212.343 C 276.167 212.967,275.728 213.888,275.262 214.392 C 274.502 215.212,274.414 215.740,274.414 219.470 L 274.414 223.633 269.827 223.488 C 263.557 223.291,263.486 223.343,263.131 228.383 C 262.850 232.390,262.637 232.990,261.633 232.605 C 260.989 232.358,260.350 230.314,259.956 227.246 L 259.718 225.391 257.886 225.421 C 254.102 225.483,252.956 226.127,252.734 228.317 C 252.461 231.017,249.707 233.161,245.247 234.144 C 244.547 234.298,243.971 234.853,243.490 235.836 C 242.939 236.960,242.367 237.446,241.016 237.939 C 239.933 238.334,239.000 239.005,238.587 239.687 C 237.463 241.542,233.901 243.347,230.174 243.951 C 225.983 244.629,225.000 245.243,225.000 247.180 C 225.000 251.135,224.246 251.937,220.508 251.953 C 216.704 251.970,216.705 251.969,216.615 256.501 C 216.512 261.672,216.484 261.719,213.493 261.719 C 208.317 261.719,207.720 262.421,208.067 268.102 C 208.220 270.593,208.147 273.093,207.882 274.479 C 207.366 277.181,207.080 388.975,207.588 389.796 C 207.926 390.343,214.160 390.166,219.727 389.451 C 221.230 389.258,224.395 388.901,226.758 388.657 C 233.627 387.950,238.517 387.167,239.914 386.551 C 240.627 386.236,243.016 385.694,245.223 385.347 C 247.430 384.999,252.088 383.826,255.575 382.741 C 259.061 381.655,263.145 380.449,264.648 380.061 C 272.422 378.053,296.264 366.719,299.608 363.440 L 300.584 362.484 300.462 350.285 C 300.312 335.393,299.862 336.574,305.756 336.393 L 310.014 336.263 311.101 337.688 L 312.188 339.113 312.051 346.961 C 311.892 356.050,311.794 355.860,315.268 353.138 C 328.536 342.743,343.031 329.173,348.038 322.461 C 351.737 317.501,357.112 310.922,357.741 310.584 C 358.103 310.389,359.272 308.764,360.339 306.971 C 361.406 305.178,363.408 301.953,364.788 299.805 C 395.615 251.801,401.512 183.359,379.524 128.755 C 349.699 54.685,274.792 6.145,195.703 9.638 M216.602 10.561 C 291.640 16.069,356.688 65.611,381.732 136.328 C 396.326 177.539,395.282 230.018,379.078 269.727 C 375.002 279.714,368.607 292.478,364.400 299.023 C 363.019 301.172,361.015 304.397,359.948 306.191 C 357.386 310.497,357.328 310.521,350.391 310.213 L 344.727 309.961 344.820 308.203 C 345.351 298.162,345.625 298.677,339.650 298.502 C 334.048 298.338,334.243 298.553,333.988 292.229 L 333.789 287.305 328.578 287.109 C 321.801 286.855,321.486 286.590,321.481 281.131 C 321.479 277.960,321.263 275.793,320.493 271.205 C 320.287 269.977,320.245 269.954,318.540 270.126 C 317.179 270.264,316.797 270.175,316.797 269.722 C 316.797 269.402,316.973 269.141,317.188 269.141 C 317.831 269.141,317.629 267.898,316.895 267.341 C 315.440 266.236,314.844 266.646,314.844 268.750 C 314.844 270.999,314.827 271.012,313.495 269.778 C 312.715 269.055,312.470 268.405,312.374 266.806 C 312.287 265.348,312.055 264.649,311.565 264.375 C 310.732 263.909,300.160 263.219,296.094 263.365 C 294.482 263.423,291.670 263.428,289.844 263.376 C 288.018 263.324,284.174 263.216,281.303 263.135 C 277.424 263.026,275.996 262.851,275.743 262.451 C 275.296 261.746,275.292 255.388,275.738 254.215 L 276.085 253.302 280.632 253.642 C 286.481 254.080,286.328 254.205,286.328 249.008 C 286.328 244.292,286.664 244.582,281.445 244.803 C 275.356 245.061,275.829 244.722,275.698 248.930 L 275.586 252.539 270.396 252.648 L 265.206 252.757 265.318 248.937 L 265.430 245.117 270.508 244.922 L 275.586 244.727 275.644 239.844 C 275.723 233.078,276.312 233.715,270.013 233.755 L 264.648 233.789 264.533 230.469 C 264.347 225.092,264.052 225.391,269.551 225.391 C 273.155 225.391,274.581 225.235,275.696 224.722 C 276.677 224.270,278.608 223.985,281.641 223.843 L 286.133 223.633 286.248 220.519 C 286.333 218.255,286.546 217.204,287.030 216.671 C 287.474 216.181,287.760 215.007,287.891 213.144 L 288.086 210.352 292.773 210.246 C 298.583 210.115,298.438 210.258,298.438 204.691 C 298.438 200.395,298.696 199.609,300.108 199.609 C 302.718 199.609,304.186 194.240,302.393 191.257 C 301.641 190.008,301.677 177.876,302.434 177.122 C 302.591 176.966,304.612 176.675,306.926 176.474 C 312.541 175.989,313.983 173.941,311.975 169.302 C 311.202 167.518,311.288 165.373,312.335 160.254 C 312.565 159.131,317.338 158.973,319.913 160.003 C 322.099 160.878,322.656 160.557,322.656 158.424 C 322.656 156.032,322.064 155.777,316.794 155.899 C 311.033 156.032,311.214 156.236,311.555 149.969 L 311.825 144.993 310.813 143.981 C 309.849 143.016,309.602 142.969,305.565 142.969 C 300.011 142.969,299.274 142.076,301.213 137.693 C 302.071 135.753,302.068 136.053,301.327 128.320 C 301.161 126.584,300.859 125.719,300.162 124.980 C 299.394 124.166,299.176 123.417,298.971 120.879 C 298.596 116.229,298.818 116.406,293.393 116.406 C 287.824 116.406,288.034 116.585,287.675 111.520 C 287.312 106.386,287.648 106.641,281.244 106.641 C 275.120 106.641,275.391 106.801,275.391 103.171 C 275.391 100.129,275.187 100.001,270.332 99.994 C 264.621 99.986,264.749 100.164,264.044 91.254 C 263.570 85.253,263.901 85.547,257.617 85.547 C 251.242 85.547,251.365 85.453,251.748 90.051 C 252.124 94.565,252.163 94.531,246.632 94.531 C 240.449 94.531,240.426 94.507,240.753 88.068 C 240.956 84.062,240.899 83.202,240.403 82.791 C 239.232 81.818,219.184 80.794,218.148 81.654 C 217.716 82.012,217.578 83.099,217.578 86.139 C 217.578 90.858,217.897 90.588,212.695 90.275 L 208.789 90.039 208.503 85.352 C 207.675 71.778,208.266 73.047,202.765 73.047 C 197.691 73.047,197.656 73.074,197.656 76.983 C 197.656 80.711,197.339 81.047,193.788 81.074 C 192.370 81.085,190.188 81.335,188.937 81.631 C 187.189 82.044,186.376 82.066,185.421 81.728 C 184.069 81.250,174.248 81.335,173.443 81.832 C 172.886 82.177,173.095 83.905,173.965 86.133 C 175.682 90.530,174.720 92.578,170.937 92.578 C 168.763 92.578,167.850 92.750,167.143 93.293 C 165.363 94.658,156.857 95.750,154.911 94.863 C 153.693 94.309,152.344 91.364,152.344 89.261 C 152.344 86.920,151.842 86.719,146.002 86.719 C 139.895 86.719,139.360 87.336,140.642 92.896 C 140.940 94.190,140.903 94.824,140.481 95.630 C 140.179 96.207,139.740 97.163,139.506 97.754 L 139.079 98.828 134.748 98.828 C 128.859 98.828,128.906 98.792,128.906 103.256 C 128.906 107.901,129.013 107.813,123.434 107.813 C 117.447 107.813,117.559 107.718,117.288 113.023 C 117.031 118.061,117.719 117.597,110.252 117.766 C 106.869 117.843,103.951 117.920,103.767 117.937 C 103.583 117.954,103.999 118.498,104.691 119.144 C 106.380 120.721,106.321 124.461,104.575 126.535 C 103.990 127.230,103.516 128.271,103.516 128.858 C 103.516 130.657,102.955 130.859,97.969 130.859 C 95.434 130.859,93.338 130.991,93.313 131.152 C 93.287 131.313,93.220 134.186,93.164 137.536 C 93.105 141.067,92.879 143.968,92.627 144.441 C 92.329 144.997,92.272 146.951,92.448 150.614 C 92.762 157.176,92.870 157.031,87.695 157.031 C 83.550 157.031,82.551 157.465,83.139 159.012 C 83.733 160.572,84.346 160.818,88.240 161.058 C 92.763 161.337,92.633 161.197,92.496 165.660 L 92.383 169.336 88.867 169.565 C 86.934 169.692,85.088 169.897,84.766 170.021 C 84.443 170.145,83.696 170.353,83.105 170.483 C 80.955 170.954,81.750 175.391,83.984 175.391 C 84.543 175.391,85.220 175.610,85.488 175.879 C 86.090 176.481,91.905 177.047,96.875 176.986 C 102.293 176.920,102.460 177.097,102.109 182.535 L 101.838 186.719 99.954 186.719 C 98.157 186.719,98.054 186.660,97.735 185.449 C 97.363 184.035,98.207 183.387,99.003 184.476 C 99.645 185.354,100.315 184.390,100.096 182.902 C 99.909 181.623,99.280 180.857,98.301 180.713 C 97.990 180.667,97.498 180.440,97.207 180.207 C 96.443 179.595,94.248 178.516,93.769 178.516 C 93.531 178.516,93.359 179.446,93.359 180.737 C 93.359 182.481,93.177 183.152,92.508 183.863 C 91.688 184.737,91.675 184.876,92.155 187.795 C 92.429 189.459,92.680 192.244,92.713 193.983 C 92.791 198.054,92.980 198.261,96.919 198.589 C 98.661 198.735,100.703 199.112,101.458 199.427 C 102.212 199.742,103.578 200.000,104.492 200.000 C 106.759 200.000,106.927 200.344,107.092 205.316 C 107.279 210.975,107.193 210.883,112.440 211.022 L 116.602 211.133 116.723 212.823 C 116.790 213.752,117.185 215.071,117.601 215.753 C 118.187 216.714,118.357 217.718,118.358 220.225 C 118.360 224.369,117.889 224.197,129.759 224.393 C 140.958 224.579,140.234 224.242,140.234 229.270 C 140.234 234.712,140.055 234.570,146.942 234.570 L 152.539 234.570 152.765 236.914 C 153.084 240.231,152.725 241.016,150.886 241.016 C 150.074 241.016,148.795 241.197,148.044 241.419 C 147.256 241.652,145.468 241.714,143.813 241.565 L 140.946 241.308 141.215 238.631 C 141.478 236.014,141.458 235.929,140.291 234.762 L 139.098 233.569 134.300 233.679 L 129.501 233.789 128.946 234.949 C 128.475 235.934,128.466 236.729,128.893 240.222 C 129.584 245.891,129.418 251.600,128.485 254.272 C 127.904 255.933,127.796 256.972,127.989 259.048 C 128.326 262.678,128.260 262.728,123.069 262.798 C 120.702 262.829,118.421 263.039,118.002 263.264 C 117.566 263.497,114.655 263.672,111.204 263.672 C 104.171 263.672,104.868 263.062,104.729 269.336 C 104.607 274.870,104.809 274.686,98.769 274.752 L 93.945 274.805 93.750 280.404 C 93.508 287.349,93.730 287.102,87.718 287.129 C 79.082 287.169,70.643 287.747,70.287 288.322 C 70.104 288.619,70.050 290.672,70.168 292.884 C 70.447 298.102,70.496 298.047,65.603 298.047 C 63.494 298.047,61.319 298.218,60.768 298.428 L 59.766 298.809 59.766 304.483 L 59.766 310.156 55.371 310.159 C 52.187 310.160,50.660 310.326,49.829 310.760 C 48.335 311.539,47.919 311.126,43.899 304.883 C 28.338 280.719,18.963 256.520,15.068 230.469 C 13.221 218.116,13.086 216.049,13.088 200.195 C 13.092 180.231,14.332 168.602,18.045 153.711 C 18.688 151.133,19.381 148.320,19.586 147.461 C 21.104 141.074,26.906 125.997,31.629 116.167 C 34.808 109.549,42.367 96.551,45.801 91.798 C 61.357 70.265,72.253 59.332,94.141 43.292 C 112.854 29.578,141.645 17.507,165.820 13.239 C 181.573 10.458,201.140 9.426,216.602 10.561 M199.219 103.365 C 197.589 104.080,192.821 104.133,190.199 103.466 C 187.726 102.836,186.365 103.236,186.077 104.675 C 185.918 105.468,185.515 105.930,184.750 106.197 C 182.834 106.865,182.505 107.911,182.828 112.305 C 183.217 117.590,183.541 117.349,176.396 117.075 C 170.628 116.853,170.544 116.862,169.428 117.800 C 168.523 118.562,167.823 118.761,165.888 118.805 C 157.241 119.001,157.867 118.523,157.788 125.000 C 157.720 130.652,157.565 131.091,155.523 131.436 C 154.688 131.577,153.060 132.325,151.905 133.097 C 150.750 133.869,149.189 134.720,148.438 134.988 L 147.070 135.474 147.070 138.147 L 147.070 140.820 149.722 141.016 C 154.389 141.359,154.379 145.483,149.708 146.272 C 147.051 146.721,146.827 147.067,146.665 150.976 C 146.510 154.681,146.780 155.469,148.203 155.469 C 151.397 155.469,151.642 158.309,148.643 160.573 C 145.121 163.233,145.245 168.111,148.876 169.748 C 151.107 170.754,150.966 172.400,148.633 172.585 C 146.340 172.766,146.283 172.920,146.411 178.630 C 146.549 184.770,146.623 185.087,147.975 185.387 C 149.614 185.749,152.341 186.883,152.342 187.203 C 152.343 187.361,151.468 188.328,150.397 189.351 L 148.451 191.211 148.346 194.531 L 148.242 197.852 151.367 198.075 C 157.108 198.486,159.262 200.569,156.250 202.796 C 155.186 203.583,155.078 203.868,155.078 205.891 C 155.078 208.691,154.907 208.626,162.161 208.617 C 169.454 208.609,169.141 208.356,169.141 214.238 C 169.141 219.784,168.748 219.485,176.184 219.618 L 182.197 219.727 183.091 221.054 C 183.854 222.187,183.984 222.884,183.984 225.816 C 183.984 230.082,183.547 229.837,191.337 229.926 L 197.715 229.998 199.665 231.210 C 203.343 233.496,207.592 232.270,206.085 229.356 C 205.230 227.703,205.199 219.851,206.045 219.149 C 206.438 218.822,208.436 218.665,212.367 218.652 L 218.114 218.633 219.403 220.156 C 220.112 220.994,220.708 222.031,220.728 222.461 C 220.755 223.025,220.828 223.082,220.992 222.663 C 221.953 220.215,223.841 219.537,229.698 219.534 C 236.614 219.530,236.523 219.593,236.883 214.567 C 237.265 209.236,237.350 208.984,238.750 208.984 C 239.391 208.984,240.363 208.633,240.909 208.203 C 242.222 207.170,244.568 207.165,245.499 208.193 C 248.030 210.990,249.609 209.508,249.609 204.334 C 249.609 198.987,249.727 198.828,253.691 198.828 C 257.628 198.828,257.566 198.953,257.341 191.552 C 257.160 185.602,257.177 185.433,258.070 184.372 C 259.417 182.772,259.377 178.216,257.998 175.977 C 256.540 173.609,256.595 169.576,258.105 168.176 C 259.722 166.677,259.638 164.006,257.910 161.909 C 256.265 159.913,256.175 157.801,257.653 155.838 C 259.128 153.878,258.799 149.415,257.032 147.403 C 255.074 145.172,255.287 141.839,257.518 139.800 C 259.444 138.040,259.275 137.055,256.991 136.719 C 255.697 136.528,255.659 136.470,255.469 134.375 L 255.273 132.227 252.872 132.031 C 249.168 131.730,248.989 131.443,248.719 125.358 C 248.429 118.850,248.706 119.141,242.801 119.141 C 238.339 119.141,237.960 119.080,236.719 118.164 C 235.467 117.241,235.117 117.187,230.295 117.182 C 223.659 117.174,223.506 117.031,223.418 110.742 C 223.397 109.238,223.261 107.217,223.116 106.250 L 222.852 104.492 216.205 104.492 C 209.904 104.492,209.499 104.446,208.437 103.613 C 207.039 102.516,201.493 102.367,199.219 103.365 M132.500 149.688 C 131.826 150.361,131.908 151.953,132.617 151.953 C 133.026 151.953,133.203 151.541,133.203 150.586 C 133.203 149.065,133.168 149.020,132.500 149.688 M321.289 158.203 C 321.289 158.534,321.034 158.720,320.703 158.631 C 320.381 158.544,318.975 158.394,317.578 158.297 C 313.568 158.019,313.730 157.371,317.776 157.503 C 320.588 157.594,321.289 157.734,321.289 158.203 M92.969 158.531 C 92.969 159.488,87.970 160.221,86.165 159.529 C 85.008 159.085,85.542 158.637,87.402 158.490 C 91.124 158.197,92.969 158.210,92.969 158.531 M313.892 170.441 C 312.479 171.474,315.336 175.392,317.500 175.388 C 321.824 175.382,324.457 172.399,321.788 170.530 C 320.664 169.743,314.936 169.678,313.892 170.441 M268.480 229.936 C 268.130 230.849,268.879 231.836,269.922 231.836 C 271.122 231.836,271.806 230.741,271.121 229.916 C 270.450 229.107,268.793 229.120,268.480 229.936 M136.328 235.344 L 138.477 235.352 138.589 238.965 L 138.701 242.578 134.627 242.578 C 129.898 242.578,130.078 242.738,130.078 238.523 C 130.078 235.106,130.438 234.610,132.616 235.033 C 133.476 235.200,135.146 235.340,136.328 235.344 M262.609 235.449 C 262.694 235.610,262.660 237.324,262.534 239.258 L 262.305 242.773 257.813 242.773 L 253.320 242.773 253.206 239.486 C 253.143 237.678,253.181 235.964,253.291 235.677 C 253.511 235.105,262.313 234.890,262.609 235.449 M202.344 239.871 C 202.344 241.296,202.435 241.448,203.223 241.336 C 204.641 241.134,204.754 238.281,203.344 238.281 C 202.435 238.281,202.344 238.426,202.344 239.871 M154.297 243.750 C 154.652 244.413,155.115 244.531,157.349 244.531 L 159.983 244.531 162.023 248.455 C 164.468 253.157,164.516 253.516,162.706 253.516 C 158.353 253.516,153.570 251.587,153.505 249.805 C 153.480 249.097,151.438 247.835,151.247 248.408 C 151.110 248.817,151.011 248.813,150.740 248.384 C 150.476 247.967,150.401 248.000,150.397 248.535 C 150.393 248.911,150.142 249.219,149.837 249.219 C 149.533 249.219,149.212 249.434,149.124 249.698 C 149.034 249.968,148.436 250.136,147.750 250.084 C 147.082 250.033,146.426 250.169,146.292 250.386 C 145.843 251.113,144.922 250.795,144.891 249.902 C 144.863 249.105,144.824 249.124,144.468 250.098 C 143.501 252.744,141.422 251.805,141.412 248.718 C 141.409 247.691,141.144 246.222,140.823 245.454 C 139.991 243.463,140.271 243.291,143.882 243.572 C 145.777 243.720,147.466 243.658,148.047 243.419 C 149.901 242.658,153.823 242.865,154.297 243.750 M239.660 245.415 C 239.782 245.901,239.829 247.615,239.765 249.223 L 239.648 252.148 234.180 252.356 C 227.586 252.606,227.734 252.688,227.734 248.803 C 227.734 245.331,227.751 245.310,230.817 244.916 C 235.958 244.254,239.418 244.449,239.660 245.415 M252.101 245.122 C 252.855 245.616,253.797 245.660,257.849 245.392 C 263.509 245.018,263.296 244.882,263.175 248.774 L 263.086 251.650 258.008 251.602 C 252.279 251.548,251.053 251.896,250.852 253.635 C 250.712 254.844,250.366 254.845,245.578 253.655 C 244.328 253.344,242.992 253.189,242.608 253.311 C 241.558 253.644,240.883 245.992,241.875 245.000 C 242.606 244.269,250.950 244.368,252.101 245.122 M174.141 245.391 C 174.719 245.969,174.773 251.025,174.204 251.376 C 173.001 252.120,166.492 252.063,166.087 251.305 C 165.584 250.366,165.345 246.074,165.758 245.410 C 166.170 244.748,173.481 244.731,174.141 245.391 M137.500 245.616 C 137.500 246.545,135.955 247.247,135.555 246.499 C 134.973 245.411,135.037 245.313,136.328 245.313 C 136.973 245.313,137.500 245.449,137.500 245.616 M184.077 254.047 C 184.345 254.463,184.102 260.153,183.769 261.230 C 183.601 261.774,174.410 261.959,174.088 261.426 C 173.990 261.265,173.848 259.559,173.772 257.636 L 173.633 254.140 175.312 253.730 C 177.422 253.215,183.686 253.441,184.077 254.047 M149.613 254.535 C 149.869 254.791,149.985 256.578,149.916 259.213 L 149.805 263.477 146.094 263.591 C 140.157 263.774,140.432 264.022,140.020 258.143 C 139.778 254.673,139.815 254.354,140.484 254.163 C 141.753 253.801,149.181 254.103,149.613 254.535 M241.016 254.118 C 241.016 254.234,240.664 254.707,240.234 255.168 C 239.707 255.734,239.453 256.547,239.453 257.665 C 239.453 261.200,239.226 261.371,234.715 261.244 L 230.749 261.133 230.194 259.180 C 228.699 253.919,228.712 253.906,235.817 253.906 C 238.676 253.906,241.016 254.001,241.016 254.118 M263.054 254.143 C 263.567 254.340,263.672 255.132,263.672 258.823 C 263.672 264.022,263.833 263.864,258.800 263.610 C 255.364 263.436,254.668 262.989,255.606 261.557 C 256.519 260.164,256.406 258.580,255.245 256.503 C 254.692 255.514,254.351 254.525,254.487 254.306 C 254.751 253.878,262.004 253.740,263.054 254.143 M249.581 256.744 C 251.032 257.483,251.772 260.989,250.901 263.000 C 250.331 264.315,250.306 265.325,250.667 272.180 C 251.010 278.666,251.041 284.158,250.814 298.047 C 250.798 299.014,250.772 305.693,250.756 312.891 C 250.733 323.142,250.613 326.153,250.202 326.790 C 249.858 327.323,249.803 327.794,250.041 328.157 C 250.470 328.809,250.057 347.167,249.595 348.033 C 249.412 348.375,249.590 349.197,250.035 350.069 C 251.921 353.766,249.970 357.806,246.295 357.811 C 241.595 357.817,238.128 351.971,241.398 349.554 C 242.489 348.747,242.517 348.663,241.848 348.195 C 240.983 347.589,240.219 330.004,240.995 328.555 C 241.316 327.955,241.232 327.484,240.624 326.453 C 239.860 325.158,239.850 324.824,240.252 313.441 C 240.507 306.198,240.541 297.601,240.340 290.820 C 239.955 277.832,239.986 274.789,240.580 266.797 C 241.189 258.620,241.419 256.886,241.939 256.549 C 242.672 256.075,248.561 256.225,249.581 256.744 M253.310 257.402 C 253.990 258.717,254.061 259.126,253.554 258.813 C 253.182 258.583,252.267 256.250,252.549 256.250 C 252.640 256.250,252.982 256.769,253.310 257.402 M163.585 257.593 C 164.960 258.873,165.559 274.581,164.868 291.211 C 164.655 296.313,164.678 299.191,164.932 299.507 C 165.182 299.817,165.232 303.106,165.071 308.686 C 164.934 313.469,164.743 323.887,164.647 331.836 L 164.473 346.289 163.487 347.085 C 162.300 348.042,162.257 348.487,163.264 349.399 C 166.702 352.509,160.322 360.436,156.769 357.469 C 154.435 355.520,153.484 351.212,154.908 349.039 C 155.456 348.203,155.458 347.988,154.929 346.964 C 154.425 345.990,153.797 303.397,154.210 298.242 C 154.267 297.533,154.100 293.176,153.218 272.277 C 152.934 265.543,152.941 265.438,153.819 264.396 C 154.662 263.394,154.842 262.463,155.032 258.126 C 155.095 256.689,162.142 256.250,163.585 257.593 M82.506 264.551 C 81.965 265.207,81.504 272.707,81.963 273.381 C 82.233 273.777,83.640 273.925,87.549 273.967 L 92.773 274.023 92.759 269.727 C 92.739 263.679,93.091 264.063,87.560 264.063 C 84.313 264.063,82.787 264.210,82.506 264.551 M274.023 269.336 L 274.023 272.852 270.117 272.709 C 265.284 272.532,265.625 272.801,265.625 269.183 C 265.625 265.404,265.402 265.578,270.097 265.710 L 274.023 265.820 274.023 269.336 M68.675 311.273 C 69.020 311.492,69.147 312.284,69.065 313.709 L 68.945 315.820 65.321 316.168 C 63.328 316.359,61.609 316.427,61.501 316.318 C 61.165 315.982,60.822 312.193,61.069 311.549 C 61.329 310.872,67.679 310.642,68.675 311.273 M69.298 319.080 C 69.410 319.261,69.394 320.931,69.263 322.790 L 69.025 326.172 65.413 326.172 C 61.184 326.172,61.328 326.325,61.328 321.843 L 61.328 318.750 65.211 318.750 C 67.347 318.750,69.186 318.898,69.298 319.080 M310.076 330.472 C 310.252 333.159,309.536 333.899,307.535 333.099 C 306.229 332.576,305.817 332.556,305.004 332.978 C 303.855 333.574,303.173 333.188,302.437 331.525 C 301.332 329.027,302.814 328.423,309.375 328.694 C 309.787 328.711,309.995 329.238,310.076 330.472 " stroke="none" fill="#950517" fill-rule="evenodd"></path><path id="path1" d="M186.328 10.601 C 153.364 13.056,118.556 25.400,94.141 43.292 C 72.253 59.332,61.357 70.265,45.801 91.798 C 42.367 96.551,34.808 109.549,31.629 116.167 C 26.906 125.997,21.104 141.074,19.586 147.461 C 19.381 148.320,18.688 151.133,18.045 153.711 C 14.332 168.602,13.092 180.231,13.088 200.195 C 13.086 216.049,13.221 218.116,15.068 230.469 C 18.810 255.498,28.273 280.562,41.871 301.459 C 43.441 303.873,45.407 306.921,46.239 308.234 C 47.621 310.413,47.841 310.595,48.778 310.336 C 49.343 310.180,51.826 309.944,54.297 309.812 L 58.789 309.570 58.789 298.360 C 58.789 285.556,58.565 286.329,62.380 285.960 C 64.914 285.715,67.441 284.768,68.060 283.832 C 68.218 283.594,68.350 281.360,68.353 278.869 C 68.361 272.881,68.175 273.047,74.919 273.047 C 81.055 273.047,80.857 273.219,80.865 267.897 C 80.873 263.186,81.471 262.500,85.571 262.500 C 90.381 262.500,91.627 261.277,92.036 256.151 C 92.320 252.585,92.618 251.953,94.013 251.953 C 94.534 251.953,95.508 251.670,96.177 251.324 C 97.143 250.825,97.680 250.779,98.794 251.100 C 100.052 251.464,103.458 251.738,105.128 251.611 C 105.651 251.571,105.794 250.938,105.932 248.044 C 106.147 243.552,106.082 243.605,111.679 243.321 C 117.422 243.030,117.188 243.195,117.188 239.456 C 117.188 233.815,117.472 233.556,123.571 233.650 C 128.987 233.733,128.735 233.930,128.830 229.536 C 128.920 225.323,128.972 225.362,122.848 225.097 C 117.121 224.850,117.441 225.120,117.188 220.313 L 116.992 216.602 112.473 216.375 C 107.067 216.105,107.031 216.087,107.031 213.677 C 107.031 210.986,106.459 210.547,102.950 210.547 C 99.172 210.547,99.143 210.501,99.273 204.884 C 99.396 199.592,99.417 199.624,95.836 199.615 C 91.941 199.606,91.406 198.691,91.406 192.040 C 91.406 185.678,91.623 185.938,86.298 185.938 C 83.017 185.938,82.020 185.809,81.627 185.335 C 80.951 184.520,81.335 131.399,82.022 130.714 C 82.313 130.424,84.030 130.310,87.033 130.380 C 92.801 130.514,94.371 129.059,92.043 125.736 C 89.654 122.325,91.720 117.647,95.803 117.224 C 99.127 116.880,98.984 117.096,99.249 112.024 C 99.511 106.985,99.750 106.641,102.976 106.641 C 106.021 106.641,106.250 106.258,106.250 101.172 C 106.250 95.709,106.255 95.703,111.186 95.703 C 116.702 95.703,117.515 94.751,117.864 87.891 C 118.140 82.474,118.193 82.422,123.399 82.422 C 128.544 82.422,128.385 82.575,128.584 77.436 C 128.805 71.716,129.190 71.361,135.456 71.094 L 140.039 70.898 139.922 69.531 C 139.261 61.810,139.515 61.399,145.309 60.826 C 150.229 60.339,150.485 60.067,150.799 55.000 C 151.079 50.500,150.896 50.624,157.618 50.391 C 164.364 50.156,164.095 50.359,164.150 45.466 C 164.203 40.701,164.257 40.625,167.612 40.625 C 169.979 40.625,170.433 40.499,171.568 39.526 C 174.034 37.414,175.310 36.719,176.720 36.719 C 179.236 36.719,179.688 35.830,179.688 30.882 C 179.688 26.085,179.502 26.381,183.111 25.414 C 185.352 24.813,186.871 24.734,193.359 24.882 C 197.549 24.978,202.119 25.047,203.516 25.036 C 221.074 24.897,219.329 24.213,218.965 31.090 C 218.718 35.751,218.755 36.246,219.371 36.483 C 220.400 36.878,224.536 36.301,225.041 35.692 C 225.621 34.994,232.047 34.937,232.734 35.625 C 232.992 35.883,233.203 36.990,233.203 38.086 C 233.203 40.666,233.612 41.016,236.627 41.016 C 240.487 41.016,240.625 41.169,240.625 45.435 C 240.625 50.935,240.536 50.868,247.621 50.740 C 254.739 50.612,254.297 50.310,254.297 55.306 C 254.297 59.917,254.470 60.156,257.808 60.156 C 258.846 60.156,259.677 60.460,260.476 61.133 C 261.114 61.670,262.073 62.109,262.606 62.109 C 264.122 62.109,264.572 63.044,264.734 66.526 C 264.995 72.115,265.370 72.619,268.555 71.660 C 273.792 70.084,274.767 70.945,275.481 77.773 C 276.022 82.952,275.788 82.768,281.825 82.780 C 287.037 82.791,286.567 82.215,286.817 88.893 C 287.073 95.734,286.817 95.403,292.089 95.714 C 298.203 96.074,298.424 96.333,298.434 103.175 C 298.438 105.779,298.741 106.108,301.468 106.470 C 304.243 106.838,304.452 107.209,304.620 112.062 C 304.794 117.062,304.691 116.936,308.837 117.212 C 311.098 117.362,312.289 117.613,312.544 117.994 C 312.916 118.550,312.763 123.646,312.278 126.859 C 311.746 130.378,311.870 130.469,317.181 130.469 C 321.226 130.469,321.896 130.560,322.212 131.152 C 322.763 132.183,322.795 183.386,322.246 184.412 C 321.582 185.653,319.474 186.328,316.265 186.328 C 312.758 186.328,312.906 186.079,312.844 192.122 C 312.819 194.629,312.686 197.207,312.549 197.852 L 312.300 199.023 308.902 199.219 C 304.496 199.472,304.527 199.432,304.356 204.998 C 304.196 210.210,304.038 210.547,301.763 210.547 C 299.648 210.547,298.225 211.625,297.875 213.491 C 297.404 216.000,296.619 216.406,292.235 216.406 C 287.525 216.406,287.431 216.489,287.191 220.823 C 286.954 225.113,287.109 225.000,281.476 225.000 C 275.655 225.000,275.781 224.901,275.781 229.492 C 275.781 234.068,275.678 233.984,281.296 233.984 C 287.449 233.984,287.108 233.747,287.115 238.030 C 287.123 243.706,286.796 243.359,292.158 243.359 C 297.735 243.359,298.012 243.510,298.286 246.688 C 298.674 251.210,299.031 251.549,303.436 251.583 C 311.847 251.647,312.187 251.866,312.695 257.538 L 313.086 261.914 317.291 262.129 C 322.617 262.402,322.512 262.293,322.920 267.969 L 323.242 272.461 327.734 272.656 C 335.394 272.989,336.089 273.679,335.873 280.723 L 335.742 284.961 339.713 285.178 C 344.290 285.429,344.454 285.524,345.896 288.737 C 346.855 290.873,346.936 291.373,346.644 293.321 C 346.464 294.524,346.362 297.700,346.419 300.379 C 346.477 303.146,346.323 306.076,346.063 307.161 C 345.455 309.696,345.577 309.752,351.686 309.760 C 357.664 309.767,357.648 309.774,359.776 306.167 C 360.700 304.601,362.744 301.336,364.318 298.912 C 398.721 245.922,401.331 168.038,370.616 110.938 C 334.314 43.448,263.434 4.858,186.328 10.601 M245.251 260.837 C 241.804 260.969,241.125 261.312,241.641 262.657 C 242.046 263.711,248.185 264.159,249.141 263.203 C 249.769 262.575,249.753 260.523,249.121 260.627 C 248.853 260.671,247.111 260.766,245.251 260.837 M159.570 264.336 C 156.107 264.573,155.933 264.790,155.747 269.096 C 155.658 271.161,155.356 273.565,155.076 274.438 C 154.575 275.996,154.700 277.356,155.451 278.516 C 156.072 279.475,162.867 279.611,163.549 278.678 C 164.169 277.829,164.227 274.474,163.640 273.378 C 163.407 272.943,163.168 271.153,163.108 269.399 C 162.921 263.901,162.948 264.057,162.207 264.133 C 161.831 264.172,160.645 264.263,159.570 264.336 M243.095 265.506 C 241.711 265.776,241.431 266.483,241.369 269.869 C 241.299 273.773,240.966 273.457,245.271 273.576 C 249.421 273.690,249.763 273.554,249.684 271.811 C 249.374 264.979,249.506 265.219,246.094 265.294 C 244.912 265.320,243.563 265.415,243.095 265.506 M241.280 275.684 C 240.935 276.269,241.090 280.469,241.465 280.700 C 241.677 280.831,243.602 280.965,245.743 280.997 C 250.115 281.062,250.556 280.824,250.228 278.578 C 249.911 276.404,249.363 276.046,246.767 276.317 C 245.166 276.484,244.074 276.382,243.095 275.973 C 241.477 275.297,241.505 275.301,241.280 275.684 M243.361 285.446 C 241.108 285.718,241.016 285.946,241.016 291.237 C 241.016 295.706,241.080 296.125,241.921 297.102 L 242.826 298.154 241.921 299.059 C 240.872 300.108,240.525 307.946,241.484 308.906 C 242.052 309.474,248.741 309.543,249.609 308.990 C 250.481 308.435,250.371 301.068,249.465 299.317 C 248.840 298.108,248.846 297.964,249.599 296.311 C 250.627 294.055,250.746 287.399,249.783 286.024 C 249.159 285.134,247.319 284.969,243.361 285.446 M155.176 287.385 C 153.885 288.649,153.846 295.643,155.123 296.920 C 156.102 297.899,162.644 297.890,163.827 296.909 C 164.852 296.057,164.729 288.557,163.672 287.500 C 162.385 286.213,156.454 286.132,155.176 287.385 M155.176 299.868 C 154.834 300.006,154.688 301.162,154.688 303.720 C 154.688 308.091,154.525 307.938,159.390 308.136 C 164.118 308.328,164.263 308.193,164.243 303.625 C 164.233 301.183,164.083 300.252,163.657 299.983 C 163.069 299.611,156.049 299.516,155.176 299.868 M156.641 310.133 L 155.273 310.352 155.160 313.570 C 154.999 318.144,155.173 318.359,159.024 318.359 C 163.582 318.359,163.672 318.275,163.672 314.036 C 163.672 311.566,163.527 310.477,163.184 310.371 C 162.223 310.073,157.983 309.919,156.641 310.133 M241.923 311.242 C 241.399 311.575,241.068 323.836,241.545 325.259 C 241.871 326.232,247.976 327.046,249.190 326.278 C 250.071 325.722,250.082 311.866,249.202 311.309 C 248.522 310.879,242.580 310.824,241.923 311.242 M244.008 349.383 C 240.011 350.241,239.737 352.651,243.299 355.618 C 246.538 358.316,250.000 356.869,250.000 352.817 C 250.000 349.136,248.681 348.380,244.008 349.383 M155.762 349.641 C 154.047 350.640,155.361 356.074,157.560 357.076 C 158.725 357.607,161.137 356.469,162.646 354.675 C 164.109 352.936,164.122 350.152,162.670 349.600 C 161.361 349.102,156.638 349.130,155.762 349.641 " stroke="none" fill="#ed897f" fill-rule="evenodd"></path><path id="path2" d="M182.932 25.429 C 179.530 26.371,179.688 26.106,179.688 30.882 C 179.688 35.830,179.236 36.719,176.720 36.719 C 175.310 36.719,174.034 37.414,171.568 39.526 C 170.433 40.499,169.979 40.625,167.612 40.625 C 164.257 40.625,164.203 40.701,164.150 45.466 C 164.095 50.359,164.364 50.156,157.618 50.391 C 150.896 50.624,151.079 50.500,150.799 55.000 C 150.485 60.067,150.229 60.339,145.309 60.826 C 139.515 61.399,139.261 61.810,139.922 69.531 L 140.039 70.898 135.456 71.094 C 129.190 71.361,128.805 71.716,128.584 77.436 C 128.385 82.575,128.544 82.422,123.399 82.422 C 118.193 82.422,118.140 82.474,117.864 87.891 C 117.515 94.751,116.702 95.703,111.186 95.703 C 106.255 95.703,106.250 95.709,106.250 101.172 C 106.250 106.258,106.021 106.641,102.976 106.641 C 99.750 106.641,99.511 106.985,99.249 112.024 C 98.984 117.096,99.127 116.880,95.803 117.224 C 91.720 117.647,89.654 122.325,92.043 125.736 C 94.371 129.059,92.801 130.514,87.033 130.380 C 84.030 130.310,82.313 130.424,82.022 130.714 C 81.335 131.399,80.951 184.520,81.627 185.335 C 82.020 185.809,83.017 185.938,86.298 185.938 C 91.623 185.937,91.406 185.678,91.406 192.040 C 91.406 198.691,91.941 199.606,95.836 199.615 C 99.417 199.624,99.396 199.592,99.273 204.884 C 99.143 210.501,99.172 210.547,102.950 210.547 C 106.459 210.547,107.031 210.986,107.031 213.677 C 107.031 216.087,107.067 216.105,112.473 216.375 L 116.992 216.602 117.188 220.313 C 117.441 225.120,117.121 224.850,122.848 225.097 C 128.972 225.362,128.920 225.323,128.830 229.536 C 128.735 233.930,128.987 233.733,123.571 233.650 C 117.472 233.556,117.188 233.815,117.188 239.456 C 117.188 243.195,117.422 243.030,111.679 243.321 C 106.082 243.605,106.147 243.552,105.932 248.044 C 105.794 250.938,105.651 251.571,105.128 251.611 C 103.458 251.738,100.052 251.464,98.794 251.100 C 97.680 250.779,97.143 250.825,96.177 251.324 C 95.508 251.670,94.534 251.953,94.013 251.953 C 92.618 251.953,92.320 252.585,92.036 256.151 C 91.627 261.277,90.381 262.500,85.571 262.500 C 81.471 262.500,80.873 263.186,80.865 267.897 C 80.857 273.226,81.065 273.047,74.851 273.047 C 68.174 273.047,68.362 272.877,68.353 278.937 C 68.350 281.391,68.218 283.594,68.060 283.832 C 67.441 284.768,64.914 285.715,62.380 285.960 C 58.565 286.329,58.789 285.556,58.789 298.360 L 58.789 309.570 54.297 309.780 C 49.964 309.982,47.452 310.524,48.330 311.066 C 48.559 311.208,49.249 311.062,49.862 310.743 C 50.655 310.329,52.244 310.160,55.371 310.159 L 59.766 310.156 59.766 304.483 L 59.766 298.809 60.768 298.428 C 61.319 298.218,63.494 298.047,65.603 298.047 C 70.496 298.047,70.447 298.102,70.168 292.884 C 70.050 290.672,70.104 288.619,70.287 288.322 C 70.643 287.747,79.082 287.169,87.718 287.129 C 93.730 287.102,93.508 287.349,93.750 280.404 L 93.945 274.805 98.769 274.752 C 104.809 274.686,104.607 274.870,104.729 269.336 C 104.868 263.062,104.171 263.672,111.204 263.672 C 114.655 263.672,117.566 263.497,118.002 263.264 C 118.421 263.039,120.702 262.829,123.069 262.798 C 128.260 262.728,128.326 262.678,127.989 259.048 C 127.796 256.972,127.904 255.933,128.485 254.272 C 129.418 251.600,129.584 245.891,128.893 240.222 C 128.466 236.729,128.475 235.934,128.946 234.949 L 129.501 233.789 134.300 233.679 L 139.098 233.569 140.291 234.762 C 141.458 235.929,141.478 236.014,141.215 238.631 L 140.946 241.308 143.813 241.565 C 145.468 241.714,147.256 241.652,148.044 241.419 C 148.795 241.197,150.074 241.016,150.886 241.016 C 152.725 241.016,153.084 240.231,152.765 236.914 L 152.539 234.570 146.942 234.570 C 140.055 234.570,140.234 234.712,140.234 229.270 C 140.234 224.242,140.958 224.579,129.759 224.393 C 117.889 224.197,118.360 224.369,118.358 220.225 C 118.357 217.718,118.187 216.714,117.601 215.753 C 117.185 215.071,116.790 213.752,116.723 212.823 L 116.602 211.133 112.440 211.022 C 107.193 210.883,107.279 210.975,107.092 205.316 C 106.927 200.344,106.759 200.000,104.492 200.000 C 103.578 200.000,102.212 199.742,101.458 199.427 C 100.703 199.112,98.661 198.735,96.919 198.589 C 92.980 198.261,92.791 198.054,92.713 193.983 C 92.680 192.244,92.429 189.459,92.155 187.795 C 91.675 184.876,91.688 184.737,92.508 183.863 C 93.177 183.152,93.359 182.481,93.359 180.737 C 93.359 179.446,93.531 178.516,93.769 178.516 C 94.248 178.516,96.443 179.595,97.207 180.207 C 97.498 180.440,97.990 180.667,98.301 180.713 C 99.280 180.857,99.909 181.623,100.096 182.902 C 100.315 184.390,99.645 185.354,99.003 184.476 C 98.207 183.387,97.363 184.035,97.735 185.449 C 98.054 186.660,98.157 186.719,99.954 186.719 L 101.838 186.719 102.109 182.535 C 102.460 177.097,102.293 176.920,96.875 176.986 C 91.905 177.047,86.090 176.481,85.488 175.879 C 85.220 175.610,84.543 175.391,83.984 175.391 C 81.750 175.391,80.955 170.954,83.105 170.483 C 83.696 170.353,84.443 170.145,84.766 170.021 C 85.088 169.897,86.934 169.692,88.867 169.565 L 92.383 169.336 92.496 165.660 C 92.633 161.197,92.763 161.337,88.240 161.058 C 84.346 160.818,83.733 160.572,83.139 159.012 C 82.551 157.465,83.550 157.031,87.695 157.031 C 92.870 157.031,92.762 157.176,92.448 150.614 C 92.272 146.951,92.329 144.997,92.627 144.441 C 92.879 143.968,93.105 141.067,93.164 137.536 C 93.220 134.186,93.287 131.313,93.313 131.152 C 93.338 130.991,95.434 130.859,97.969 130.859 C 102.955 130.859,103.516 130.657,103.516 128.858 C 103.516 128.271,103.990 127.230,104.575 126.535 C 106.321 124.461,106.380 120.721,104.691 119.144 C 103.999 118.498,103.583 117.954,103.767 117.937 C 103.951 117.920,106.869 117.843,110.252 117.766 C 117.719 117.597,117.031 118.061,117.288 113.023 C 117.559 107.718,117.447 107.813,123.434 107.813 C 129.013 107.813,128.906 107.901,128.906 103.256 C 128.906 98.792,128.859 98.828,134.748 98.828 L 139.079 98.828 139.506 97.754 C 139.740 97.163,140.179 96.207,140.481 95.630 C 140.903 94.824,140.940 94.190,140.642 92.896 C 139.360 87.336,139.895 86.719,146.002 86.719 C 151.842 86.719,152.344 86.920,152.344 89.261 C 152.344 91.364,153.693 94.309,154.911 94.863 C 156.857 95.750,165.363 94.658,167.143 93.293 C 167.850 92.750,168.763 92.578,170.937 92.578 C 174.720 92.578,175.682 90.530,173.965 86.133 C 173.095 83.905,172.886 82.177,173.443 81.832 C 174.248 81.335,184.069 81.250,185.421 81.728 C 186.376 82.066,187.189 82.044,188.937 81.631 C 190.188 81.335,192.370 81.085,193.788 81.074 C 197.339 81.047,197.656 80.711,197.656 76.983 C 197.656 73.074,197.691 73.047,202.765 73.047 C 208.266 73.047,207.675 71.778,208.503 85.352 L 208.789 90.039 212.695 90.275 C 217.897 90.588,217.578 90.858,217.578 86.139 C 217.578 83.099,217.716 82.012,218.148 81.654 C 219.184 80.794,239.232 81.818,240.403 82.791 C 240.899 83.202,240.956 84.062,240.753 88.068 C 240.426 94.507,240.449 94.531,246.632 94.531 C 252.163 94.531,252.124 94.565,251.748 90.051 C 251.365 85.453,251.242 85.547,257.617 85.547 C 263.901 85.547,263.570 85.253,264.044 91.254 C 264.749 100.164,264.621 99.986,270.332 99.994 C 275.187 100.001,275.391 100.129,275.391 103.171 C 275.391 106.801,275.120 106.641,281.244 106.641 C 287.648 106.641,287.312 106.386,287.675 111.520 C 288.034 116.585,287.824 116.406,293.393 116.406 C 298.818 116.406,298.596 116.229,298.971 120.879 C 299.176 123.417,299.394 124.166,300.162 124.980 C 300.859 125.719,301.161 126.584,301.327 128.320 C 302.068 136.053,302.071 135.753,301.213 137.693 C 299.274 142.076,300.011 142.969,305.565 142.969 C 309.602 142.969,309.849 143.016,310.813 143.981 L 311.825 144.993 311.555 149.969 C 311.214 156.236,311.033 156.032,316.794 155.899 C 319.308 155.841,321.361 155.975,321.833 156.228 C 322.705 156.694,323.064 132.768,322.209 131.152 C 321.896 130.560,321.227 130.469,317.181 130.469 C 311.870 130.469,311.746 130.378,312.278 126.859 C 312.763 123.646,312.916 118.550,312.544 117.994 C 312.289 117.613,311.098 117.362,308.837 117.212 C 304.691 116.936,304.794 117.062,304.620 112.062 C 304.452 107.209,304.243 106.838,301.468 106.470 C 298.741 106.108,298.438 105.779,298.434 103.175 C 298.424 96.333,298.203 96.074,292.089 95.714 C 286.817 95.403,287.073 95.734,286.817 88.893 C 286.567 82.215,287.037 82.791,281.825 82.780 C 275.788 82.768,276.022 82.952,275.481 77.773 C 274.767 70.945,273.792 70.084,268.555 71.660 C 265.370 72.619,264.995 72.115,264.734 66.526 C 264.572 63.044,264.122 62.109,262.606 62.109 C 262.073 62.109,261.114 61.670,260.476 61.133 C 259.677 60.460,258.846 60.156,257.808 60.156 C 254.470 60.156,254.297 59.917,254.297 55.306 C 254.297 50.310,254.739 50.612,247.621 50.740 C 240.536 50.868,240.625 50.935,240.625 45.435 C 240.625 41.169,240.487 41.016,236.627 41.016 C 233.612 41.016,233.203 40.666,233.203 38.086 C 233.203 36.990,232.992 35.883,232.734 35.625 C 232.047 34.937,225.621 34.994,225.041 35.692 C 224.536 36.301,220.400 36.878,219.371 36.483 C 218.755 36.246,218.718 35.751,218.965 31.090 C 219.329 24.220,221.011 24.879,203.516 25.039 C 202.119 25.052,197.461 24.994,193.164 24.911 C 186.652 24.784,184.949 24.870,182.932 25.429 M312.335 160.254 C 311.288 165.373,311.202 167.518,311.975 169.302 C 313.983 173.941,312.541 175.989,306.926 176.474 C 304.612 176.675,302.591 176.966,302.434 177.122 C 301.677 177.876,301.641 190.008,302.393 191.257 C 304.186 194.240,302.718 199.609,300.108 199.609 C 298.696 199.609,298.438 200.395,298.438 204.691 C 298.438 210.258,298.583 210.115,292.773 210.246 L 288.086 210.352 287.891 213.144 C 287.760 215.007,287.474 216.181,287.030 216.671 C 286.546 217.204,286.333 218.255,286.248 220.519 L 286.133 223.633 281.641 223.843 C 278.608 223.985,276.677 224.270,275.696 224.722 C 274.581 225.235,273.155 225.391,269.551 225.391 C 264.052 225.391,264.347 225.092,264.533 230.469 L 264.648 233.789 270.013 233.755 C 276.312 233.715,275.723 233.078,275.644 239.844 L 275.586 244.727 270.508 244.922 L 265.430 245.117 265.318 248.937 L 265.206 252.757 270.396 252.648 L 275.586 252.539 275.698 248.930 C 275.829 244.722,275.356 245.061,281.445 244.803 C 286.664 244.582,286.328 244.292,286.328 249.008 C 286.328 254.205,286.481 254.080,280.632 253.642 L 276.085 253.302 275.738 254.215 C 275.292 255.388,275.296 261.746,275.743 262.451 C 275.996 262.851,277.424 263.026,281.303 263.135 C 284.174 263.216,288.018 263.324,289.844 263.376 C 291.670 263.428,294.482 263.423,296.094 263.365 C 300.160 263.219,310.732 263.909,311.565 264.375 C 312.055 264.649,312.287 265.348,312.374 266.806 C 312.470 268.405,312.715 269.055,313.495 269.778 C 314.827 271.012,314.844 270.999,314.844 268.750 C 314.844 266.646,315.440 266.236,316.895 267.341 C 317.629 267.898,317.831 269.141,317.188 269.141 C 316.973 269.141,316.797 269.402,316.797 269.722 C 316.797 270.175,317.179 270.264,318.540 270.126 C 320.245 269.954,320.287 269.977,320.493 271.205 C 321.263 275.793,321.479 277.960,321.481 281.131 C 321.486 286.590,321.801 286.855,328.578 287.109 L 333.789 287.305 333.988 292.229 C 334.243 298.553,334.048 298.338,339.650 298.502 C 345.625 298.677,345.351 298.162,344.820 308.203 L 344.727 309.961 350.391 310.213 C 355.755 310.451,358.203 310.120,358.203 309.156 C 358.203 309.046,357.863 309.139,357.448 309.361 C 356.535 309.850,346.901 309.894,346.142 309.413 C 345.701 309.133,345.686 308.730,346.063 307.161 C 346.323 306.076,346.477 303.146,346.419 300.379 C 346.362 297.700,346.464 294.524,346.644 293.321 C 346.936 291.373,346.855 290.873,345.896 288.737 C 344.454 285.524,344.290 285.429,339.713 285.178 L 335.742 284.961 335.873 280.723 C 336.089 273.679,335.394 272.989,327.734 272.656 L 323.242 272.461 322.920 267.969 C 322.512 262.293,322.617 262.402,317.291 262.129 L 313.086 261.914 312.695 257.538 C 312.187 251.866,311.847 251.647,303.436 251.583 C 299.031 251.549,298.674 251.210,298.286 246.688 C 298.012 243.510,297.735 243.359,292.158 243.359 C 286.796 243.359,287.123 243.706,287.115 238.030 C 287.108 233.747,287.449 233.984,281.296 233.984 C 275.678 233.984,275.781 234.068,275.781 229.492 C 275.781 224.901,275.655 225.000,281.476 225.000 C 287.109 225.000,286.954 225.113,287.191 220.823 C 287.431 216.489,287.525 216.406,292.235 216.406 C 296.619 216.406,297.404 216.000,297.875 213.491 C 298.225 211.625,299.648 210.547,301.763 210.547 C 304.038 210.547,304.196 210.210,304.356 204.998 C 304.527 199.432,304.496 199.472,308.902 199.219 L 312.300 199.023 312.549 197.852 C 312.686 197.207,312.819 194.629,312.844 192.122 C 312.906 186.079,312.758 186.328,316.265 186.328 C 319.456 186.328,321.581 185.654,322.234 184.434 C 322.789 183.397,322.798 172.959,322.243 173.910 C 321.175 175.742,316.423 175.883,315.108 174.121 C 313.327 171.734,313.093 171.026,313.892 170.441 C 314.936 169.678,320.664 169.743,321.788 170.530 L 322.656 171.138 322.656 165.659 C 322.656 160.947,322.574 160.212,322.070 160.406 C 321.747 160.530,320.776 160.348,319.913 160.003 C 317.338 158.973,312.565 159.131,312.335 160.254 M271.121 229.916 C 271.806 230.741,271.122 231.836,269.922 231.836 C 268.879 231.836,268.130 230.849,268.480 229.936 C 268.793 229.120,270.450 229.107,271.121 229.916 M253.291 235.677 C 253.181 235.964,253.143 237.678,253.206 239.486 L 253.320 242.773 257.813 242.773 L 262.305 242.773 262.534 239.258 C 262.660 237.324,262.694 235.610,262.609 235.449 C 262.313 234.890,253.511 235.105,253.291 235.677 M230.817 244.916 C 227.751 245.310,227.734 245.331,227.734 248.803 C 227.734 252.688,227.586 252.606,234.180 252.356 L 239.648 252.148 239.765 249.223 C 239.967 244.162,239.272 243.827,230.817 244.916 M165.758 245.410 C 165.345 246.074,165.584 250.366,166.087 251.305 C 166.492 252.063,173.001 252.120,174.204 251.376 C 174.773 251.025,174.719 245.969,174.141 245.391 C 173.481 244.731,166.170 244.748,165.758 245.410 M135.156 245.533 C 135.156 246.662,135.986 247.216,136.727 246.582 C 137.803 245.661,137.694 245.313,136.328 245.313 C 135.684 245.313,135.156 245.412,135.156 245.533 M140.484 254.163 C 139.815 254.354,139.778 254.673,140.020 258.143 C 140.432 264.022,140.157 263.774,146.094 263.591 L 149.805 263.477 149.916 259.213 C 149.985 256.578,149.869 254.791,149.613 254.535 C 149.181 254.103,141.753 253.801,140.484 254.163 M254.487 254.306 C 254.351 254.525,254.692 255.514,255.245 256.503 C 256.406 258.580,256.519 260.164,255.606 261.557 C 254.668 262.989,255.364 263.436,258.800 263.610 C 263.833 263.864,263.672 264.022,263.672 258.823 C 263.672 255.132,263.567 254.340,263.054 254.143 C 262.004 253.740,254.751 253.878,254.487 254.306 M241.939 256.549 C 240.601 257.416,239.836 273.804,240.340 290.820 C 240.541 297.601,240.507 306.198,240.252 313.441 C 239.850 324.824,239.860 325.158,240.624 326.453 C 241.232 327.484,241.316 327.955,240.995 328.555 C 240.219 330.004,240.983 347.589,241.848 348.195 C 242.517 348.663,242.489 348.747,241.398 349.554 C 238.128 351.971,241.595 357.817,246.295 357.811 C 249.970 357.806,251.921 353.766,250.035 350.069 C 249.590 349.197,249.412 348.375,249.595 348.033 C 250.057 347.167,250.470 328.809,250.041 328.157 C 249.803 327.794,249.858 327.323,250.202 326.790 C 250.613 326.153,250.733 323.142,250.756 312.891 C 250.772 305.693,250.798 299.014,250.814 298.047 C 251.041 284.158,251.010 278.666,250.667 272.180 C 250.306 265.325,250.331 264.315,250.901 263.000 C 251.772 260.989,251.032 257.483,249.581 256.744 C 248.561 256.225,242.672 256.075,241.939 256.549 M157.129 256.944 C 155.207 257.064,155.075 257.138,155.032 258.126 C 154.842 262.463,154.662 263.394,153.819 264.396 C 152.941 265.438,152.934 265.543,153.218 272.277 C 154.100 293.176,154.267 297.533,154.210 298.242 C 153.797 303.397,154.425 345.990,154.929 346.964 C 155.458 347.988,155.456 348.203,154.908 349.039 C 153.484 351.212,154.435 355.520,156.769 357.469 C 160.322 360.436,166.702 352.509,163.264 349.399 C 162.257 348.487,162.300 348.042,163.487 347.085 L 164.473 346.289 164.647 331.836 C 164.743 323.887,164.934 313.469,165.071 308.686 C 165.232 303.106,165.182 299.817,164.932 299.507 C 164.678 299.191,164.655 296.313,164.868 291.211 C 165.559 274.581,164.960 258.873,163.585 257.593 C 163.007 257.054,160.077 256.760,157.129 256.944 M249.609 261.641 C 249.609 263.290,248.950 263.672,246.113 263.667 C 243.080 263.660,241.926 263.400,241.641 262.657 C 241.125 261.312,241.804 260.969,245.251 260.837 C 247.111 260.766,248.853 260.671,249.121 260.627 C 249.415 260.579,249.609 260.983,249.609 261.641 M92.478 264.746 C 92.625 265.122,92.751 267.363,92.759 269.727 L 92.773 274.023 87.549 273.967 C 83.640 273.925,82.233 273.777,81.963 273.381 C 81.504 272.707,81.965 265.207,82.506 264.551 C 83.204 263.704,92.140 263.879,92.478 264.746 M162.945 265.137 C 162.975 265.728,163.049 267.646,163.108 269.399 C 163.168 271.153,163.407 272.943,163.640 273.378 C 164.227 274.474,164.169 277.829,163.549 278.678 C 162.867 279.611,156.072 279.475,155.451 278.516 C 154.700 277.356,154.575 275.996,155.076 274.438 C 155.356 273.565,155.658 271.161,155.747 269.096 C 155.933 264.790,156.107 264.573,159.570 264.336 C 160.645 264.263,161.831 264.172,162.207 264.133 C 162.698 264.082,162.906 264.365,162.945 265.137 M248.828 265.617 C 249.215 265.862,249.450 266.756,249.520 268.248 C 249.578 269.491,249.652 271.094,249.684 271.811 C 249.717 272.527,249.539 273.240,249.290 273.394 C 248.792 273.701,241.828 273.599,241.509 273.280 C 241.139 272.909,241.426 266.658,241.836 266.164 C 242.551 265.303,247.696 264.901,248.828 265.617 M265.898 265.873 C 265.530 266.241,265.548 272.174,265.918 272.393 C 266.079 272.488,267.969 272.630,270.117 272.709 L 274.023 272.852 274.023 269.336 L 274.023 265.820 270.097 265.710 C 267.938 265.649,266.048 265.722,265.898 265.873 M243.095 275.973 C 244.074 276.382,245.166 276.484,246.767 276.317 C 249.363 276.046,249.911 276.404,250.228 278.578 C 250.556 280.824,250.115 281.062,245.743 280.997 C 240.989 280.926,241.077 280.978,241.094 278.219 C 241.113 275.099,241.083 275.132,243.095 275.973 M249.783 286.024 C 250.746 287.399,250.627 294.055,249.599 296.311 C 248.846 297.964,248.840 298.108,249.465 299.317 C 250.371 301.068,250.481 308.435,249.609 308.990 C 248.741 309.543,242.052 309.474,241.484 308.906 C 240.525 307.946,240.872 300.108,241.921 299.059 L 242.826 298.154 241.921 297.102 C 240.852 295.860,240.514 286.840,241.505 286.017 C 242.837 284.912,249.007 284.917,249.783 286.024 M161.230 286.654 C 164.013 286.763,164.453 287.539,164.453 292.335 C 164.453 297.361,164.441 297.374,159.575 297.587 C 154.562 297.806,154.297 297.534,154.297 292.170 C 154.297 286.533,154.478 286.389,161.230 286.654 M163.657 299.983 C 164.083 300.252,164.233 301.183,164.243 303.625 C 164.263 308.193,164.118 308.328,159.390 308.136 C 154.525 307.938,154.688 308.091,154.688 303.720 C 154.688 301.162,154.834 300.006,155.176 299.868 C 156.049 299.516,163.069 299.611,163.657 299.983 M163.184 310.371 C 163.527 310.477,163.672 311.566,163.672 314.036 C 163.672 318.275,163.582 318.359,159.024 318.359 C 155.173 318.359,154.999 318.144,155.160 313.570 L 155.273 310.352 156.641 310.133 C 157.983 309.919,162.223 310.073,163.184 310.371 M61.069 311.549 C 60.822 312.193,61.165 315.982,61.501 316.318 C 61.609 316.427,63.328 316.359,65.321 316.168 L 68.945 315.820 69.065 313.709 C 69.216 311.056,69.051 310.951,64.734 310.943 C 61.979 310.939,61.257 311.058,61.069 311.549 M249.202 311.309 C 250.082 311.866,250.071 325.722,249.190 326.278 C 247.976 327.046,241.871 326.232,241.545 325.259 C 241.068 323.836,241.399 311.575,241.923 311.242 C 242.580 310.824,248.522 310.879,249.202 311.309 M61.328 321.843 C 61.328 326.325,61.184 326.172,65.413 326.172 L 69.025 326.172 69.263 322.790 C 69.564 318.524,69.791 318.750,65.211 318.750 L 61.328 318.750 61.328 321.843 M249.190 349.857 C 252.568 354.151,247.493 359.112,243.299 355.618 C 239.737 352.651,240.011 350.241,244.008 349.383 C 247.523 348.629,248.278 348.698,249.190 349.857 M162.670 349.600 C 164.122 350.152,164.109 352.936,162.646 354.675 C 161.137 356.469,158.725 357.607,157.560 357.076 C 155.361 356.074,154.047 350.640,155.762 349.641 C 156.638 349.130,161.361 349.102,162.670 349.600 " stroke="none" fill="#ea171b" fill-rule="evenodd"></path><path id="path3" d="M0.000 200.000 L 0.000 400.000 200.000 400.000 L 400.000 400.000 400.000 200.000 L 400.000 0.000 200.000 0.000 L 0.000 0.000 0.000 200.000 M211.719 8.986 C 235.175 10.258,255.509 14.790,276.172 23.351 C 333.986 47.304,377.727 99.963,389.645 159.961 C 392.960 176.651,394.290 198.604,392.994 215.238 C 390.921 241.841,384.287 265.050,371.986 288.741 C 368.732 295.008,359.004 311.073,358.263 311.404 C 358.115 311.470,357.372 312.314,356.610 313.281 C 344.694 328.413,338.708 334.788,325.977 345.905 C 321.214 350.064,314.225 355.579,312.220 356.761 C 311.407 357.240,307.930 359.492,304.492 361.765 C 282.560 376.266,255.711 386.236,229.967 389.440 C 217.645 390.973,214.813 391.154,202.734 391.180 C 184.788 391.219,177.398 390.367,153.414 385.497 C 149.015 384.603,130.826 378.715,127.927 377.246 C 126.851 376.701,124.565 375.712,122.848 375.049 C 118.480 373.361,106.705 367.048,102.734 364.264 C 100.908 362.984,96.953 360.313,93.945 358.328 C 84.461 352.069,76.278 345.168,66.263 334.986 C 61.347 329.987,61.074 329.671,53.586 320.288 C 50.939 316.971,48.127 313.482,47.336 312.533 C 39.152 302.717,26.705 278.464,20.654 260.547 C 10.706 231.092,8.564 194.118,14.905 161.328 C 24.662 110.883,57.907 63.163,101.678 36.774 C 104.300 35.194,107.324 33.362,108.398 32.704 C 127.970 20.716,160.178 11.129,186.719 9.390 C 199.221 8.571,202.948 8.510,211.719 8.986 M191.602 92.214 C 184.445 92.530,176.650 93.410,174.877 94.102 C 174.272 94.338,172.670 94.531,171.316 94.531 C 169.380 94.531,168.625 94.713,167.775 95.381 C 166.900 96.070,165.868 96.300,162.351 96.593 C 158.703 96.897,157.894 97.085,157.299 97.771 C 156.882 98.250,155.915 98.677,154.955 98.805 L 153.320 99.023 153.064 101.126 C 152.747 103.717,152.708 103.742,148.331 104.025 C 144.243 104.290,142.120 105.386,140.960 107.829 C 139.983 109.888,139.069 110.494,136.507 110.784 C 133.055 111.174,131.465 112.130,130.025 114.682 C 128.590 117.226,127.811 117.790,125.242 118.153 C 124.194 118.301,122.923 118.611,122.418 118.841 C 121.490 119.263,121.346 119.537,120.912 121.707 C 120.571 123.410,118.598 125.639,116.678 126.490 C 114.471 127.469,114.068 128.054,113.672 130.859 C 113.267 133.726,112.897 134.238,110.830 134.794 C 108.001 135.556,107.032 136.959,107.025 140.302 C 107.018 143.747,106.876 144.009,104.662 144.649 L 102.930 145.149 102.814 147.762 C 102.718 149.944,102.839 150.564,103.548 151.522 C 104.705 153.087,104.327 155.023,102.522 156.776 C 100.880 158.371,100.873 158.501,102.344 160.352 C 104.008 162.445,104.126 168.943,102.539 171.094 C 101.132 173.000,101.273 174.132,103.125 175.825 L 104.688 177.253 104.688 181.368 C 104.688 186.757,105.645 188.000,110.740 189.233 C 112.341 189.620,112.891 190.154,112.891 191.322 C 112.891 191.868,113.306 193.033,113.815 193.911 C 114.323 194.789,114.948 196.157,115.204 196.950 C 115.577 198.104,115.959 198.485,117.113 198.856 C 119.047 199.479,119.434 199.834,120.525 201.987 C 121.732 204.369,123.615 205.890,127.007 207.220 C 129.834 208.330,130.469 209.050,130.469 211.148 C 130.469 212.416,132.034 213.181,136.435 214.064 C 140.033 214.785,140.609 215.151,140.619 216.725 C 140.629 218.227,141.335 219.094,143.581 220.361 C 144.758 221.025,145.888 221.882,146.093 222.265 C 146.339 222.724,147.269 223.102,148.833 223.377 C 152.421 224.009,155.859 227.544,155.859 230.601 C 155.859 232.860,156.976 233.241,159.990 232.011 C 162.513 230.982,166.334 233.388,170.867 238.861 C 174.793 243.601,175.645 244.141,179.197 244.141 C 182.319 244.141,182.552 244.306,183.398 247.118 C 183.714 248.166,184.324 249.595,184.754 250.293 L 185.535 251.563 189.740 251.568 C 194.970 251.576,195.067 251.631,194.723 254.385 C 194.436 256.685,194.840 257.902,196.726 260.423 C 197.625 261.625,197.656 261.902,197.656 268.637 C 197.656 277.535,197.554 277.344,202.318 277.344 C 206.977 277.344,206.828 277.599,206.869 269.568 C 206.910 261.594,206.777 262.330,208.356 261.354 C 209.270 260.789,209.756 260.144,209.922 259.272 C 210.969 253.789,213.386 251.506,218.532 251.139 C 223.507 250.784,223.462 250.815,223.731 247.469 C 223.981 244.353,224.334 244.038,228.320 243.384 C 232.234 242.741,232.255 242.730,232.773 240.911 C 233.702 237.646,234.003 237.166,235.292 236.908 C 237.684 236.428,237.956 236.241,238.662 234.593 C 239.456 232.742,240.439 232.422,245.337 232.422 C 248.757 232.422,250.928 230.683,251.095 227.810 C 251.242 225.268,251.670 224.953,257.111 223.380 C 262.285 221.885,262.891 221.490,262.891 219.609 C 262.891 217.702,263.715 216.576,265.529 216.005 C 266.334 215.751,267.694 215.092,268.552 214.539 C 269.586 213.874,270.896 213.460,272.443 213.311 C 274.684 213.095,274.785 213.038,275.027 211.847 C 275.380 210.113,281.644 203.806,283.902 202.911 C 284.944 202.498,285.793 201.830,286.147 201.144 C 286.461 200.537,287.333 199.571,288.086 198.997 C 289.394 197.999,289.453 197.848,289.453 195.484 L 289.453 193.014 291.736 191.257 C 292.992 190.291,294.315 189.049,294.677 188.497 C 295.038 187.946,296.273 186.964,297.421 186.317 L 299.508 185.139 299.687 181.102 C 299.835 177.777,300.024 176.810,300.762 175.618 C 301.541 174.356,301.615 173.908,301.334 172.143 C 301.157 171.029,301.004 164.654,300.994 157.976 L 300.977 145.834 299.707 144.388 C 299.009 143.592,298.438 142.785,298.438 142.595 C 298.438 142.404,297.964 141.685,297.386 140.997 C 296.694 140.176,296.186 138.928,295.901 137.357 C 295.512 135.203,295.355 134.932,294.317 134.618 C 290.790 133.553,290.655 133.401,289.873 129.631 C 289.461 127.651,289.200 127.273,286.801 125.209 C 283.770 122.598,283.236 121.808,283.217 119.902 C 283.197 117.890,282.671 117.578,279.293 117.578 C 275.625 117.578,275.164 117.265,274.085 114.041 L 273.242 111.523 269.444 111.300 C 265.205 111.052,264.063 110.470,264.063 108.561 C 264.063 106.296,260.908 104.581,256.492 104.445 C 253.088 104.340,252.724 104.138,252.152 102.035 C 251.615 100.060,248.613 98.516,244.716 98.211 C 240.700 97.895,240.386 97.783,239.543 96.354 C 238.776 95.054,238.751 95.045,235.108 94.799 C 233.094 94.664,229.863 94.196,227.930 93.759 C 225.556 93.223,221.178 92.778,214.453 92.388 C 203.829 91.771,201.957 91.757,191.602 92.214 M209.089 102.136 C 210.043 102.534,212.524 102.764,217.242 102.890 C 222.746 103.037,224.502 103.227,226.563 103.900 C 227.959 104.355,231.010 104.923,233.343 105.161 C 236.926 105.526,237.713 105.731,238.421 106.483 C 239.360 107.482,246.277 109.929,247.181 109.582 C 248.428 109.103,248.828 110.141,248.828 113.854 C 248.828 118.655,249.076 118.895,254.239 119.081 C 259.278 119.263,258.954 118.679,258.898 127.473 C 258.858 133.776,258.953 135.159,259.503 136.211 C 260.429 137.983,260.321 138.847,258.984 140.370 C 255.973 143.799,259.181 150.305,263.917 150.373 C 265.508 150.396,265.939 149.815,266.088 147.451 L 266.211 145.508 269.961 145.397 C 274.461 145.263,274.701 145.441,274.932 149.070 C 275.073 151.272,275.223 151.668,276.176 152.347 C 276.939 152.890,277.316 153.555,277.445 154.587 C 277.546 155.394,277.854 156.591,278.128 157.246 C 278.901 159.090,278.320 162.004,276.919 163.314 C 275.352 164.777,275.483 165.457,277.506 166.351 C 282.400 168.516,280.289 172.341,273.047 174.434 C 269.538 175.447,269.433 175.599,269.120 180.109 C 268.769 185.178,268.733 185.214,264.021 185.207 C 258.233 185.199,258.740 184.523,258.921 192.001 C 259.064 197.941,259.015 198.531,258.249 200.000 C 257.642 201.165,257.422 202.297,257.422 204.261 C 257.422 207.473,257.187 207.729,254.089 207.888 C 251.831 208.004,251.740 208.052,251.086 209.443 C 250.716 210.232,250.056 210.991,249.620 211.129 C 248.566 211.464,248.197 212.261,247.879 214.891 C 247.584 217.324,246.591 218.750,245.193 218.750 C 244.714 218.750,243.710 219.166,242.962 219.674 C 242.214 220.182,240.986 220.732,240.234 220.895 C 238.586 221.253,238.295 221.641,238.287 223.487 C 238.281 225.080,237.828 225.602,236.131 225.977 C 233.649 226.525,232.902 227.018,232.203 228.567 C 231.323 230.519,230.919 230.729,227.373 231.079 C 224.020 231.409,223.047 232.102,223.047 234.157 C 223.047 235.661,222.812 235.885,220.353 236.719 C 218.898 237.212,218.399 237.676,217.203 239.648 L 215.782 241.992 212.766 241.868 C 210.179 241.761,209.545 241.870,208.315 242.630 C 206.146 243.970,201.120 244.126,197.244 242.974 C 195.645 242.498,193.444 241.970,192.354 241.801 C 188.450 241.193,187.471 240.376,181.637 232.855 C 180.177 230.973,179.317 230.570,176.634 230.508 C 174.275 230.453,173.908 230.184,170.076 225.682 C 166.043 220.946,164.778 219.922,162.959 219.922 C 161.021 219.922,158.203 217.093,158.203 215.148 C 158.203 212.183,154.857 209.057,151.223 208.629 C 147.740 208.218,147.269 207.640,147.252 203.748 C 147.243 201.746,147.033 200.228,146.680 199.609 C 146.263 198.881,146.118 197.083,146.108 192.528 C 146.091 185.214,146.508 185.725,140.297 185.406 C 134.449 185.106,134.774 185.299,134.727 182.106 C 134.678 178.857,134.375 177.732,133.399 177.185 C 131.364 176.045,128.147 173.710,126.609 172.257 L 124.897 170.640 125.115 168.234 C 125.338 165.780,125.974 164.835,128.354 163.424 C 129.052 163.010,129.024 162.949,127.930 162.503 C 125.610 161.558,125.591 161.532,125.466 159.156 C 125.310 156.156,125.558 155.305,126.748 154.763 C 127.508 154.417,127.736 154.020,127.740 153.036 C 127.748 151.490,128.000 151.101,129.395 150.489 C 130.582 149.967,130.751 149.039,129.870 147.875 C 129.028 146.760,129.131 144.648,130.052 144.154 C 132.903 142.629,136.489 144.852,136.191 147.960 C 135.980 150.163,136.561 150.452,140.904 150.308 L 144.304 150.195 144.811 148.438 C 145.409 146.366,146.402 145.510,148.906 144.906 C 152.423 144.057,152.386 142.578,148.848 142.578 C 145.290 142.578,144.860 142.036,145.002 137.737 C 145.125 134.032,145.126 134.029,147.461 133.339 C 149.233 132.815,149.262 131.442,147.517 130.713 C 145.625 129.922,145.312 129.097,145.318 124.928 C 145.326 119.434,145.268 119.531,148.559 119.531 C 150.983 119.531,151.451 119.410,152.353 118.546 C 152.953 117.971,154.102 117.438,155.109 117.267 L 156.836 116.973 157.034 113.140 C 157.264 108.708,157.476 108.410,160.675 108.025 C 165.642 107.426,168.013 106.914,168.842 106.261 C 169.380 105.839,171.836 105.156,175.005 104.549 C 177.902 103.995,181.855 103.205,183.789 102.795 C 186.627 102.194,188.359 102.086,192.773 102.235 C 196.094 102.348,198.626 102.261,199.219 102.016 C 200.746 101.384,207.485 101.466,209.089 102.136 M260.766 158.835 C 260.456 160.067,260.672 160.354,261.604 159.947 C 261.989 159.779,262.420 159.664,262.560 159.691 C 263.023 159.781,263.744 158.636,263.487 158.220 C 262.938 157.332,261.035 157.762,260.766 158.835 M281.076 159.018 C 281.478 159.670,280.573 160.417,280.034 159.878 C 279.583 159.427,279.865 158.594,280.469 158.594 C 280.658 158.594,280.931 158.785,281.076 159.018 M206.912 220.172 C 206.428 220.655,206.610 226.764,207.129 227.449 C 207.699 228.203,216.907 228.561,217.612 227.857 C 217.831 227.638,217.951 225.870,217.887 223.793 L 217.773 220.117 212.478 220.009 C 209.565 219.949,207.061 220.023,206.912 220.172 " stroke="none" fill="#040404" fill-rule="evenodd"></path><path id="path4" d="M195.898 8.857 C 163.523 10.164,130.509 19.161,108.398 32.704 C 107.324 33.362,104.300 35.194,101.678 36.774 C 85.174 46.724,66.183 63.353,54.229 78.320 C 17.368 124.474,4.246 177.939,14.875 238.672 C 18.849 261.381,34.632 297.294,47.336 312.533 C 48.127 313.482,50.939 316.971,53.586 320.288 C 61.074 329.671,61.347 329.987,66.263 334.986 C 76.278 345.168,84.461 352.069,93.945 358.328 C 96.953 360.313,100.908 362.984,102.734 364.264 C 106.705 367.048,118.480 373.361,122.848 375.049 C 124.565 375.712,126.851 376.701,127.927 377.246 C 130.826 378.715,149.015 384.603,153.414 385.497 C 177.398 390.367,184.788 391.219,202.734 391.180 C 214.813 391.154,217.645 390.973,229.967 389.440 C 255.711 386.236,282.560 376.266,304.492 361.765 C 307.930 359.492,311.407 357.240,312.220 356.761 C 314.225 355.579,321.214 350.064,325.977 345.905 C 338.708 334.788,344.694 328.413,356.610 313.281 C 357.372 312.314,358.115 311.470,358.263 311.404 C 359.004 311.073,368.732 295.008,371.986 288.741 C 384.287 265.050,390.921 241.841,392.994 215.238 C 394.006 202.255,393.360 184.285,391.379 170.313 C 382.859 110.214,344.653 57.661,288.867 29.308 C 276.405 22.974,267.025 19.360,252.225 15.188 C 241.309 12.111,225.936 9.757,211.719 8.986 C 204.891 8.616,202.384 8.595,195.898 8.857 M211.719 9.767 C 279.083 13.421,337.116 49.658,369.986 108.594 C 402.117 166.203,399.974 245.013,364.788 299.805 C 363.408 301.953,361.406 305.178,360.339 306.971 C 359.272 308.764,358.103 310.389,357.741 310.584 C 357.112 310.922,351.737 317.501,348.038 322.461 C 343.031 329.173,328.536 342.743,315.268 353.138 C 311.794 355.860,311.892 356.050,312.051 346.961 L 312.188 339.113 311.101 337.688 L 310.014 336.263 305.756 336.393 C 299.862 336.574,300.312 335.393,300.462 350.285 L 300.584 362.484 299.608 363.440 C 296.264 366.719,272.422 378.053,264.648 380.061 C 263.145 380.449,259.061 381.655,255.575 382.741 C 252.088 383.826,247.430 384.999,245.223 385.347 C 243.016 385.694,240.627 386.236,239.914 386.551 C 238.517 387.167,233.627 387.950,226.758 388.657 C 224.395 388.901,221.230 389.258,219.727 389.451 C 214.160 390.166,207.926 390.343,207.588 389.796 C 207.080 388.975,207.366 277.181,207.882 274.479 C 208.147 273.093,208.220 270.593,208.067 268.102 C 207.720 262.421,208.317 261.719,213.493 261.719 C 216.484 261.719,216.512 261.672,216.615 256.501 C 216.705 251.969,216.704 251.970,220.508 251.953 C 224.246 251.937,225.000 251.135,225.000 247.180 C 225.000 245.243,225.983 244.629,230.174 243.951 C 233.901 243.347,237.463 241.542,238.587 239.687 C 239.000 239.005,239.933 238.334,241.016 237.939 C 242.367 237.446,242.939 236.960,243.490 235.836 C 243.971 234.853,244.547 234.298,245.247 234.144 C 249.707 233.161,252.461 231.017,252.734 228.317 C 252.956 226.127,254.102 225.483,257.886 225.421 L 259.718 225.391 259.956 227.246 C 260.350 230.314,260.989 232.358,261.633 232.605 C 262.637 232.990,262.850 232.390,263.131 228.383 C 263.486 223.343,263.557 223.291,269.827 223.488 L 274.414 223.633 274.414 219.470 C 274.414 215.740,274.502 215.212,275.262 214.392 C 275.728 213.888,276.167 212.967,276.238 212.343 C 276.464 210.356,278.024 209.599,282.352 209.375 L 286.133 209.180 286.384 206.055 C 286.670 202.495,287.517 200.171,288.663 199.808 C 290.205 199.318,290.625 198.487,290.625 195.924 C 290.625 193.505,290.650 193.448,292.156 192.405 C 292.998 191.821,294.379 190.583,295.225 189.654 C 296.071 188.724,297.500 187.588,298.400 187.128 C 300.368 186.124,300.274 186.383,300.602 181.074 C 300.914 176.041,301.815 174.609,304.672 174.609 C 305.477 174.609,307.224 174.496,308.555 174.356 L 310.974 174.104 310.858 172.110 L 310.742 170.117 306.836 170.010 C 302.196 169.883,301.953 169.694,301.953 166.214 C 301.953 163.202,302.280 162.891,305.449 162.888 C 310.013 162.885,310.802 162.473,311.119 159.934 C 311.524 156.693,311.230 156.492,306.584 156.821 L 302.791 157.090 302.106 156.045 C 301.505 155.127,301.478 154.732,301.883 152.770 C 302.733 148.655,302.239 144.921,300.738 144.118 C 300.304 143.885,299.633 142.958,299.246 142.057 C 298.860 141.156,298.257 140.180,297.905 139.888 C 297.483 139.538,297.264 138.742,297.260 137.550 C 297.252 134.953,296.604 133.959,294.450 133.235 C 292.053 132.429,291.885 132.226,291.353 129.476 C 290.905 127.166,290.129 125.781,289.282 125.781 C 287.894 125.781,284.712 121.586,284.410 119.358 C 284.034 116.591,283.773 116.421,279.883 116.406 C 276.110 116.392,276.134 116.407,275.198 113.477 C 274.202 110.358,273.893 110.156,270.129 110.156 C 266.447 110.156,265.234 109.580,265.234 107.831 C 265.234 106.469,263.251 104.598,261.069 103.901 C 260.245 103.638,259.043 102.937,258.398 102.344 C 257.754 101.750,256.562 101.052,255.750 100.793 C 253.263 100.000,250.791 98.418,250.175 97.227 C 249.592 96.099,249.571 96.094,245.943 96.094 C 242.649 96.094,242.150 95.994,240.781 95.066 C 239.486 94.187,238.660 93.993,235.095 93.729 C 232.155 93.511,230.609 93.214,229.857 92.720 C 228.162 91.610,222.863 91.105,215.060 91.312 L 208.008 91.498 207.092 90.509 C 206.297 89.650,206.168 89.089,206.116 86.264 L 206.055 83.008 203.716 83.091 C 202.018 83.152,201.242 83.360,200.883 83.852 C 200.499 84.377,200.283 84.424,199.920 84.061 C 198.462 82.603,197.739 86.071,199.076 88.112 C 199.428 88.648,199.647 89.132,199.565 89.187 C 199.482 89.242,198.681 89.778,197.785 90.378 C 196.304 91.370,195.879 91.461,193.098 91.375 C 185.970 91.155,177.633 91.916,175.236 93.005 C 174.199 93.476,172.720 93.736,171.049 93.741 C 169.057 93.748,168.235 93.931,167.462 94.539 C 166.448 95.336,162.516 96.057,159.046 96.082 C 157.956 96.089,156.995 96.373,156.357 96.875 C 155.810 97.305,154.785 97.656,154.079 97.656 C 153.279 97.656,152.357 98.024,151.634 98.633 C 150.557 99.539,150.177 99.609,146.362 99.609 C 141.078 99.609,141.016 99.637,141.016 101.959 C 141.016 103.189,140.624 104.706,139.877 106.370 C 138.652 109.102,138.769 109.030,134.697 109.565 C 132.167 109.897,130.456 111.155,129.297 113.535 C 127.888 116.426,127.595 116.661,124.715 117.204 C 121.675 117.778,120.556 118.687,120.142 120.921 C 119.739 123.095,118.359 124.718,115.885 125.928 C 113.156 127.263,112.868 127.641,112.343 130.576 C 111.920 132.941,111.866 133.020,110.349 133.517 C 107.198 134.548,105.521 137.398,106.038 140.845 C 106.298 142.576,105.654 143.750,104.445 143.750 C 101.622 143.750,100.322 148.705,102.344 151.758 C 103.973 154.218,102.397 156.492,98.716 156.989 C 95.256 157.457,94.608 158.953,97.852 158.983 C 98.666 158.991,99.530 159.464,100.684 160.536 L 102.344 162.078 102.344 165.773 L 102.344 169.468 100.745 171.131 C 99.334 172.600,98.866 172.834,96.755 173.123 C 93.173 173.612,93.035 174.219,96.505 174.219 C 99.209 174.219,99.555 174.317,101.350 175.593 C 103.930 177.428,103.893 177.334,103.900 182.076 C 103.908 187.433,104.353 188.015,110.254 190.387 C 111.348 190.827,111.720 191.203,111.723 191.875 C 111.726 192.369,112.165 193.537,112.698 194.471 C 113.232 195.404,113.808 196.723,113.977 197.400 C 114.226 198.395,114.704 198.833,116.456 199.674 C 118.324 200.570,118.770 201.009,119.656 202.821 C 120.916 205.397,121.701 206.149,125.182 208.117 C 127.447 209.398,127.959 209.877,128.242 210.980 C 128.861 213.391,130.169 214.129,135.788 215.238 C 139.050 215.882,139.012 215.838,139.720 219.695 C 140.463 223.745,140.370 223.678,145.770 224.036 C 151.570 224.421,154.571 226.826,155.003 231.437 C 155.246 234.031,156.931 234.746,160.027 233.569 C 162.636 232.577,166.359 234.970,170.708 240.436 C 173.382 243.796,176.018 245.408,179.196 245.626 L 181.635 245.794 182.068 247.402 C 182.306 248.287,182.917 249.831,183.426 250.835 L 184.350 252.660 188.171 252.915 C 190.273 253.055,192.250 253.205,192.565 253.248 C 192.994 253.306,193.110 253.782,193.026 255.141 C 192.913 256.981,193.854 259.480,195.260 261.075 C 196.353 262.315,196.899 283.716,196.905 325.586 C 196.908 345.996,197.035 368.055,197.187 374.606 C 197.593 392.081,198.621 390.346,188.283 389.629 C 177.175 388.857,174.858 388.527,159.961 385.584 C 156.738 384.948,153.047 384.226,151.758 383.981 C 150.469 383.736,147.656 382.945,145.508 382.225 C 143.359 381.504,139.019 380.093,135.863 379.089 C 132.434 377.999,129.290 376.727,128.050 375.928 C 126.076 374.656,123.956 373.835,122.636 373.830 C 121.822 373.827,116.344 371.155,113.672 369.458 C 112.490 368.707,110.238 367.422,108.667 366.603 C 107.097 365.783,105.295 364.630,104.664 364.040 L 103.516 362.968 103.516 354.493 C 103.516 346.453,103.473 345.959,102.677 344.842 L 101.839 343.664 102.677 341.939 C 104.129 338.952,103.449 336.328,101.224 336.328 C 99.541 336.328,98.626 335.483,99.183 334.442 C 99.433 333.975,99.773 333.594,99.940 333.594 C 100.647 333.594,101.953 331.924,101.953 331.020 C 101.953 329.796,100.442 329.111,96.991 328.771 C 94.023 328.478,94.011 328.493,93.929 332.812 C 93.894 334.655,93.656 336.555,93.399 337.035 C 93.088 337.617,92.907 340.679,92.853 346.265 C 92.763 355.716,92.850 355.424,90.425 354.441 C 86.237 352.742,62.847 331.309,59.575 326.172 C 58.109 323.870,50.813 314.788,48.435 312.305 C 40.804 304.336,27.354 278.346,21.245 259.766 C 7.896 219.165,9.191 169.571,24.617 130.650 C 52.011 61.535,114.785 14.879,186.719 10.172 C 199.448 9.339,202.811 9.284,211.719 9.767 M214.453 92.388 C 221.178 92.778,225.556 93.223,227.930 93.759 C 229.863 94.196,233.094 94.664,235.108 94.799 C 238.751 95.045,238.776 95.054,239.543 96.354 C 240.386 97.783,240.700 97.895,244.716 98.211 C 248.613 98.516,251.615 100.060,252.152 102.035 C 252.724 104.138,253.088 104.340,256.492 104.445 C 260.908 104.581,264.063 106.296,264.063 108.561 C 264.063 110.470,265.205 111.052,269.444 111.300 L 273.242 111.523 274.085 114.041 C 275.164 117.265,275.625 117.578,279.293 117.578 C 282.671 117.578,283.197 117.890,283.217 119.902 C 283.236 121.808,283.770 122.598,286.801 125.209 C 289.200 127.273,289.461 127.651,289.873 129.631 C 290.655 133.401,290.790 133.553,294.317 134.618 C 295.355 134.932,295.512 135.203,295.901 137.357 C 296.186 138.928,296.694 140.176,297.386 140.997 C 297.964 141.685,298.438 142.404,298.438 142.595 C 298.438 142.785,299.009 143.592,299.707 144.388 L 300.977 145.834 300.994 157.976 C 301.004 164.654,301.157 171.029,301.334 172.143 C 301.615 173.908,301.541 174.356,300.762 175.618 C 300.024 176.810,299.835 177.777,299.687 181.102 L 299.508 185.139 297.421 186.317 C 296.273 186.964,295.038 187.946,294.677 188.497 C 294.315 189.049,292.992 190.291,291.736 191.257 L 289.453 193.014 289.453 195.484 C 289.453 197.848,289.394 197.999,288.086 198.997 C 287.333 199.571,286.461 200.537,286.147 201.144 C 285.793 201.830,284.944 202.498,283.902 202.911 C 281.644 203.806,275.380 210.113,275.027 211.847 C 274.785 213.038,274.684 213.095,272.443 213.311 C 270.896 213.460,269.586 213.874,268.552 214.539 C 267.694 215.092,266.334 215.751,265.529 216.005 C 263.715 216.576,262.891 217.702,262.891 219.609 C 262.891 221.490,262.285 221.885,257.111 223.380 C 251.670 224.953,251.242 225.268,251.095 227.810 C 250.928 230.683,248.757 232.422,245.337 232.422 C 240.439 232.422,239.456 232.742,238.662 234.593 C 237.956 236.241,237.684 236.428,235.292 236.908 C 234.003 237.166,233.702 237.646,232.773 240.911 C 232.255 242.730,232.234 242.741,228.320 243.384 C 224.334 244.038,223.981 244.353,223.731 247.469 C 223.462 250.815,223.507 250.784,218.532 251.139 C 213.386 251.506,210.969 253.789,209.922 259.272 C 209.756 260.144,209.270 260.789,208.356 261.354 C 206.777 262.330,206.910 261.594,206.869 269.568 C 206.828 277.599,206.977 277.344,202.318 277.344 C 197.554 277.344,197.656 277.535,197.656 268.637 C 197.656 261.902,197.625 261.625,196.726 260.423 C 194.840 257.902,194.436 256.685,194.723 254.385 C 195.067 251.631,194.970 251.576,189.740 251.568 L 185.535 251.563 184.754 250.293 C 184.324 249.595,183.714 248.166,183.398 247.118 C 182.552 244.306,182.319 244.141,179.197 244.141 C 175.645 244.141,174.793 243.601,170.867 238.861 C 166.334 233.388,162.513 230.982,159.990 232.011 C 156.976 233.241,155.859 232.860,155.859 230.601 C 155.859 227.544,152.421 224.009,148.833 223.377 C 147.269 223.102,146.339 222.724,146.093 222.265 C 145.888 221.882,144.758 221.025,143.581 220.361 C 141.335 219.094,140.629 218.227,140.619 216.725 C 140.609 215.151,140.033 214.785,136.435 214.064 C 132.034 213.181,130.469 212.416,130.469 211.148 C 130.469 209.050,129.834 208.330,127.007 207.220 C 123.615 205.890,121.732 204.369,120.525 201.987 C 119.434 199.834,119.047 199.479,117.113 198.856 C 115.959 198.485,115.577 198.104,115.204 196.950 C 114.948 196.157,114.323 194.789,113.815 193.911 C 113.306 193.033,112.891 191.868,112.891 191.322 C 112.891 190.154,112.341 189.620,110.740 189.233 C 105.645 188.000,104.688 186.757,104.688 181.368 L 104.688 177.253 103.125 175.825 C 101.273 174.132,101.132 173.000,102.539 171.094 C 104.126 168.943,104.008 162.445,102.344 160.352 C 100.873 158.501,100.880 158.371,102.522 156.776 C 104.327 155.023,104.705 153.087,103.548 151.522 C 102.839 150.564,102.718 149.944,102.814 147.762 L 102.930 145.149 104.662 144.649 C 106.876 144.009,107.018 143.747,107.025 140.302 C 107.032 136.959,108.001 135.556,110.830 134.794 C 112.897 134.238,113.267 133.726,113.672 130.859 C 114.068 128.054,114.471 127.469,116.678 126.490 C 118.598 125.639,120.571 123.410,120.912 121.707 C 121.346 119.537,121.490 119.263,122.418 118.841 C 122.923 118.611,124.194 118.301,125.242 118.153 C 127.811 117.790,128.590 117.226,130.025 114.682 C 131.465 112.130,133.055 111.174,136.507 110.784 C 139.069 110.494,139.983 109.888,140.960 107.829 C 142.120 105.386,144.243 104.290,148.331 104.025 C 152.708 103.742,152.747 103.717,153.064 101.126 L 153.320 99.023 154.955 98.805 C 155.915 98.677,156.882 98.250,157.299 97.771 C 157.894 97.085,158.703 96.897,162.351 96.593 C 165.868 96.300,166.900 96.070,167.775 95.381 C 168.625 94.713,169.380 94.531,171.316 94.531 C 172.670 94.531,174.272 94.338,174.877 94.102 C 177.428 93.106,189.653 92.074,201.367 91.865 C 203.086 91.835,208.975 92.070,214.453 92.388 M199.219 102.016 C 198.626 102.261,196.094 102.348,192.773 102.235 C 188.359 102.086,186.627 102.194,183.789 102.795 C 181.855 103.205,177.902 103.995,175.005 104.549 C 171.836 105.156,169.380 105.839,168.842 106.261 C 168.013 106.914,165.642 107.426,160.675 108.025 C 157.476 108.410,157.264 108.708,157.034 113.140 L 156.836 116.973 155.109 117.267 C 154.102 117.438,152.953 117.971,152.353 118.546 C 151.451 119.410,150.983 119.531,148.559 119.531 C 145.268 119.531,145.326 119.434,145.318 124.928 C 145.312 129.097,145.625 129.922,147.517 130.713 C 149.262 131.442,149.233 132.815,147.461 133.339 C 145.126 134.029,145.125 134.032,145.002 137.737 C 144.860 142.036,145.290 142.578,148.848 142.578 C 152.386 142.578,152.423 144.057,148.906 144.906 C 146.402 145.510,145.409 146.366,144.811 148.438 L 144.304 150.195 140.904 150.308 C 136.561 150.452,135.980 150.163,136.191 147.960 C 136.489 144.852,132.903 142.629,130.052 144.154 C 129.131 144.648,129.028 146.760,129.870 147.875 C 130.751 149.039,130.582 149.967,129.395 150.489 C 128.000 151.101,127.748 151.490,127.740 153.036 C 127.736 154.020,127.508 154.417,126.748 154.763 C 125.558 155.305,125.310 156.156,125.466 159.156 C 125.591 161.532,125.610 161.558,127.930 162.503 C 129.024 162.949,129.052 163.010,128.354 163.424 C 125.974 164.835,125.338 165.780,125.115 168.234 L 124.897 170.640 126.609 172.257 C 128.147 173.710,131.364 176.045,133.399 177.185 C 134.375 177.732,134.678 178.857,134.727 182.106 C 134.774 185.299,134.449 185.106,140.297 185.406 C 146.508 185.725,146.091 185.214,146.108 192.528 C 146.118 197.083,146.263 198.881,146.680 199.609 C 147.033 200.228,147.243 201.746,147.252 203.748 C 147.269 207.640,147.740 208.218,151.223 208.629 C 154.857 209.057,158.203 212.183,158.203 215.148 C 158.203 217.093,161.021 219.922,162.959 219.922 C 164.778 219.922,166.043 220.946,170.076 225.682 C 173.908 230.184,174.275 230.453,176.634 230.508 C 179.317 230.570,180.177 230.973,181.637 232.855 C 187.471 240.376,188.450 241.193,192.354 241.801 C 193.444 241.970,195.645 242.498,197.244 242.974 C 201.120 244.126,206.146 243.970,208.315 242.630 C 209.545 241.870,210.179 241.761,212.766 241.868 L 215.782 241.992 217.203 239.648 C 218.399 237.676,218.898 237.212,220.353 236.719 C 222.812 235.885,223.047 235.661,223.047 234.157 C 223.047 232.102,224.020 231.409,227.373 231.079 C 230.919 230.729,231.323 230.519,232.203 228.567 C 232.902 227.018,233.649 226.525,236.131 225.977 C 237.828 225.602,238.281 225.080,238.287 223.487 C 238.295 221.641,238.586 221.253,240.234 220.895 C 240.986 220.732,242.214 220.182,242.962 219.674 C 243.710 219.166,244.714 218.750,245.193 218.750 C 246.591 218.750,247.584 217.324,247.879 214.891 C 248.197 212.261,248.566 211.464,249.620 211.129 C 250.056 210.991,250.716 210.232,251.086 209.443 C 251.740 208.052,251.831 208.004,254.089 207.888 C 257.187 207.729,257.422 207.473,257.422 204.261 C 257.422 202.297,257.642 201.165,258.249 200.000 C 259.015 198.531,259.064 197.941,258.921 192.001 C 258.740 184.523,258.233 185.199,264.021 185.207 C 268.733 185.214,268.769 185.178,269.120 180.109 C 269.433 175.599,269.538 175.447,273.047 174.434 C 280.289 172.341,282.400 168.516,277.506 166.351 C 275.483 165.457,275.352 164.777,276.919 163.314 C 278.320 162.004,278.901 159.090,278.128 157.246 C 277.854 156.591,277.546 155.394,277.445 154.587 C 277.316 153.555,276.939 152.890,276.176 152.347 C 275.223 151.668,275.073 151.272,274.932 149.070 C 274.701 145.441,274.461 145.263,269.961 145.397 L 266.211 145.508 266.088 147.451 C 265.939 149.815,265.508 150.396,263.917 150.373 C 259.181 150.305,255.973 143.799,258.984 140.370 C 260.321 138.847,260.429 137.983,259.503 136.211 C 258.953 135.159,258.858 133.776,258.898 127.473 C 258.954 118.679,259.278 119.263,254.239 119.081 C 249.076 118.895,248.828 118.655,248.828 113.854 C 248.828 110.141,248.428 109.103,247.181 109.582 C 246.277 109.929,239.360 107.482,238.421 106.483 C 237.713 105.731,236.926 105.526,233.343 105.161 C 231.010 104.923,227.959 104.355,226.563 103.900 C 224.502 103.227,222.746 103.037,217.242 102.890 C 212.524 102.764,210.043 102.534,209.089 102.136 C 207.485 101.466,200.746 101.384,199.219 102.016 M208.437 103.613 C 209.499 104.446,209.904 104.492,216.205 104.492 L 222.852 104.492 223.116 106.250 C 223.261 107.217,223.397 109.238,223.418 110.742 C 223.506 117.031,223.659 117.174,230.295 117.182 C 235.117 117.187,235.467 117.241,236.719 118.164 C 237.960 119.080,238.339 119.141,242.801 119.141 C 248.706 119.141,248.429 118.850,248.719 125.358 C 248.989 131.443,249.168 131.730,252.872 132.031 L 255.273 132.227 255.469 134.375 C 255.659 136.470,255.697 136.528,256.991 136.719 C 259.275 137.055,259.444 138.040,257.518 139.800 C 255.287 141.839,255.074 145.172,257.032 147.403 C 258.799 149.415,259.128 153.878,257.653 155.838 C 256.175 157.801,256.265 159.913,257.910 161.909 C 259.638 164.006,259.722 166.677,258.105 168.176 C 256.595 169.576,256.540 173.609,257.998 175.977 C 259.377 178.216,259.417 182.772,258.070 184.372 C 257.177 185.433,257.160 185.602,257.341 191.552 C 257.566 198.953,257.628 198.828,253.691 198.828 C 249.727 198.828,249.609 198.987,249.609 204.334 C 249.609 209.508,248.030 210.990,245.499 208.193 C 244.568 207.165,242.222 207.170,240.909 208.203 C 240.363 208.633,239.391 208.984,238.750 208.984 C 237.350 208.984,237.265 209.236,236.883 214.567 C 236.523 219.593,236.614 219.530,229.698 219.534 C 223.841 219.537,221.953 220.215,220.992 222.663 C 220.828 223.082,220.755 223.025,220.728 222.461 C 220.708 222.031,220.112 220.994,219.403 220.156 L 218.114 218.633 212.367 218.652 C 208.436 218.665,206.438 218.822,206.045 219.149 C 205.199 219.851,205.230 227.703,206.085 229.356 C 207.592 232.270,203.343 233.496,199.665 231.210 L 197.715 229.998 191.337 229.926 C 183.547 229.837,183.984 230.082,183.984 225.816 C 183.984 222.884,183.854 222.187,183.091 221.054 L 182.197 219.727 176.184 219.618 C 168.748 219.485,169.141 219.784,169.141 214.238 C 169.141 208.356,169.454 208.609,162.161 208.617 C 154.907 208.626,155.078 208.691,155.078 205.891 C 155.078 203.868,155.186 203.583,156.250 202.796 C 159.262 200.569,157.108 198.486,151.367 198.075 L 148.242 197.852 148.346 194.531 L 148.451 191.211 150.397 189.351 C 151.468 188.328,152.343 187.361,152.342 187.203 C 152.341 186.883,149.614 185.749,147.975 185.387 C 146.623 185.087,146.549 184.770,146.411 178.630 C 146.283 172.920,146.340 172.766,148.633 172.585 C 150.966 172.400,151.107 170.754,148.876 169.748 C 145.245 168.111,145.121 163.233,148.643 160.573 C 151.642 158.309,151.397 155.469,148.203 155.469 C 146.780 155.469,146.510 154.681,146.665 150.976 C 146.827 147.067,147.051 146.721,149.708 146.272 C 154.379 145.483,154.389 141.359,149.722 141.016 L 147.070 140.820 147.070 138.147 L 147.070 135.474 148.438 134.988 C 149.189 134.720,150.750 133.869,151.905 133.097 C 153.060 132.325,154.688 131.577,155.523 131.436 C 157.565 131.091,157.720 130.652,157.788 125.000 C 157.867 118.523,157.241 119.001,165.888 118.805 C 167.823 118.761,168.523 118.562,169.428 117.800 C 170.544 116.862,170.628 116.853,176.396 117.075 C 183.541 117.349,183.217 117.590,182.828 112.305 C 182.505 107.911,182.834 106.865,184.750 106.197 C 185.515 105.930,185.918 105.468,186.077 104.675 C 186.365 103.236,187.726 102.836,190.199 103.466 C 192.821 104.133,197.589 104.080,199.219 103.365 C 201.493 102.367,207.039 102.516,208.437 103.613 M133.203 150.586 C 133.203 151.541,133.026 151.953,132.617 151.953 C 131.908 151.953,131.826 150.361,132.500 149.688 C 133.168 149.020,133.203 149.065,133.203 150.586 M314.651 157.755 C 314.865 157.956,316.182 158.200,317.578 158.297 C 318.975 158.394,320.381 158.544,320.703 158.631 C 321.034 158.720,321.289 158.534,321.289 158.203 C 321.289 157.734,320.588 157.594,317.776 157.503 C 315.580 157.431,314.409 157.526,314.651 157.755 M263.487 158.220 C 263.744 158.636,263.023 159.781,262.560 159.691 C 262.420 159.664,261.989 159.779,261.604 159.947 C 260.672 160.354,260.456 160.067,260.766 158.835 C 261.035 157.762,262.938 157.332,263.487 158.220 M87.402 158.490 C 85.542 158.637,85.008 159.085,86.165 159.529 C 87.210 159.929,90.923 159.791,91.974 159.312 C 94.189 158.303,92.844 158.061,87.402 158.490 M279.862 159.018 C 279.459 159.670,280.365 160.417,280.903 159.878 C 281.354 159.427,281.072 158.594,280.469 158.594 C 280.279 158.594,280.006 158.785,279.862 159.018 M217.887 223.793 C 218.028 228.404,218.207 228.261,212.420 228.170 C 206.611 228.079,206.641 228.102,206.641 223.623 C 206.641 219.630,206.235 219.881,212.478 220.009 L 217.773 220.117 217.887 223.793 M130.565 235.216 C 130.060 235.721,129.872 240.804,130.315 241.960 C 130.510 242.469,131.272 242.578,134.627 242.578 L 138.701 242.578 138.589 238.965 L 138.477 235.352 136.328 235.344 C 135.146 235.340,133.476 235.200,132.616 235.033 C 131.531 234.823,130.903 234.879,130.565 235.216 M204.223 239.746 C 204.033 242.037,202.344 242.150,202.344 239.871 C 202.344 238.426,202.435 238.281,203.344 238.281 C 204.261 238.281,204.334 238.403,204.223 239.746 M148.047 243.419 C 147.466 243.658,145.777 243.720,143.882 243.572 C 140.271 243.291,139.991 243.463,140.823 245.454 C 141.144 246.222,141.409 247.691,141.412 248.718 C 141.422 251.805,143.501 252.744,144.468 250.098 C 144.824 249.124,144.863 249.105,144.891 249.902 C 144.922 250.795,145.843 251.113,146.292 250.386 C 146.426 250.169,147.082 250.033,147.750 250.084 C 148.436 250.136,149.034 249.968,149.124 249.698 C 149.212 249.434,149.533 249.219,149.837 249.219 C 150.142 249.219,150.393 248.911,150.397 248.535 C 150.401 248.000,150.476 247.967,150.740 248.384 C 151.011 248.813,151.110 248.817,151.247 248.408 C 151.438 247.835,153.480 249.097,153.505 249.805 C 153.570 251.587,158.353 253.516,162.706 253.516 C 164.516 253.516,164.468 253.157,162.023 248.455 L 159.983 244.531 157.349 244.531 C 155.115 244.531,154.652 244.413,154.297 243.750 C 153.823 242.865,149.901 242.658,148.047 243.419 M241.875 245.000 C 240.883 245.992,241.558 253.644,242.608 253.311 C 242.992 253.189,244.328 253.344,245.578 253.655 C 250.366 254.845,250.712 254.844,250.852 253.635 C 251.053 251.896,252.279 251.548,258.008 251.602 L 263.086 251.650 263.175 248.774 C 263.296 244.882,263.509 245.018,257.849 245.392 C 253.797 245.660,252.855 245.616,252.101 245.122 C 250.950 244.368,242.606 244.269,241.875 245.000 M175.312 253.730 L 173.633 254.140 173.772 257.636 C 173.848 259.559,173.990 261.265,174.088 261.426 C 174.410 261.959,183.601 261.774,183.769 261.230 C 184.102 260.153,184.345 254.463,184.077 254.047 C 183.686 253.441,177.422 253.215,175.312 253.730 M229.904 254.429 C 229.132 254.993,229.168 255.569,230.194 259.180 L 230.749 261.133 234.715 261.244 C 239.226 261.371,239.453 261.200,239.453 257.665 C 239.453 256.547,239.707 255.734,240.234 255.168 C 240.664 254.707,241.016 254.234,241.016 254.118 C 241.016 253.622,230.609 253.913,229.904 254.429 M252.793 257.423 C 253.160 258.476,253.906 259.394,253.906 258.793 C 253.906 258.436,252.740 256.250,252.549 256.250 C 252.459 256.250,252.568 256.778,252.793 257.423 M305.371 328.803 C 301.606 328.950,301.387 329.153,302.437 331.525 C 303.173 333.188,303.855 333.574,305.004 332.978 C 305.817 332.556,306.229 332.576,307.535 333.099 C 309.015 333.691,309.124 333.684,309.643 332.975 C 310.384 331.962,310.181 328.727,309.375 328.694 C 309.053 328.680,307.251 328.730,305.371 328.803 " stroke="none" fill="#3a0409" fill-rule="evenodd"></path></g></svg>